<svg xmlns="http://www.w3.org/2000/svg" xmlns:xlink="http://www.w3.org/1999/xlink" contentStyleType="text/css" height="778px" preserveAspectRatio="none" style="width:10936px;height:778px;background:#FFFFFF;" version="1.1" viewBox="0 0 10936 778" width="10936px" zoomAndPan="magnify"><defs/><g><!--cluster Population Application--><g id="cluster_Population Application"><rect fill="none" height="493" rx="2.5" ry="2.5" style="stroke:#181818;stroke-width:1.0;" width="10923" x="7" y="193.5"/><text fill="#000000" font-family="sans-serif" font-size="14" font-weight="bold" lengthAdjust="spacing" textLength="152.4346" x="5392.2827" y="210.6074">Population Application</text></g><g id="elem_UC01"><ellipse cx="166.1622" cy="288.4324" fill="#F1F1F1" rx="142.6622" ry="30.9324" style="stroke:#181818;stroke-width:0.5;"/><text fill="#000000" font-family="sans-serif" font-size="14" lengthAdjust="spacing" textLength="251.3506" x="40.4869" y="292.2293">Report showing all countries in the world</text></g><g id="elem_UC02"><ellipse cx="492.1858" cy="288.5372" fill="#F1F1F1" rx="148.1858" ry="32.0372" style="stroke:#181818;stroke-width:0.5;"/><text fill="#000000" font-family="sans-serif" font-size="14" lengthAdjust="spacing" textLength="263.04" x="360.6658" y="292.334">Report showing all countries in a continent</text></g><g id="elem_UC03"><ellipse cx="815.2369" cy="288.3474" fill="#F1F1F1" rx="139.7369" ry="30.3474" style="stroke:#181818;stroke-width:0.5;"/><text fill="#000000" font-family="sans-serif" font-size="14" lengthAdjust="spacing" textLength="245.1367" x="692.6685" y="292.1443">Report showing all countries in a region</text></g><g id="elem_UC04"><ellipse cx="1171.2137" cy="288.7427" fill="#F1F1F1" rx="181.7137" ry="38.7427" style="stroke:#181818;stroke-width:0.5;"/><text fill="#000000" font-family="sans-serif" font-size="14" lengthAdjust="spacing" textLength="333.0879" x="1004.6697" y="292.5396">Report showing top x populated countries in the world</text></g><g id="elem_UC05"><ellipse cx="1574.8629" cy="288.3726" fill="#F1F1F1" rx="187.3629" ry="39.8726" style="stroke:#181818;stroke-width:0.5;"/><text fill="#000000" font-family="sans-serif" font-size="14" lengthAdjust="spacing" textLength="344.7773" x="1402.4742" y="292.1695">Report showing top x populated countries in a continent</text></g><g id="elem_UC06"><ellipse cx="1976.2158" cy="288.6432" fill="#F1F1F1" rx="178.7158" ry="38.1432" style="stroke:#181818;stroke-width:0.5;"/><text fill="#000000" font-family="sans-serif" font-size="14" lengthAdjust="spacing" textLength="326.874" x="1812.7788" y="292.44">Report showing top x populated countries in a region</text></g><g id="elem_UC07"><ellipse cx="2320.9868" cy="288.5974" fill="#F1F1F1" rx="130.9868" ry="28.5974" style="stroke:#181818;stroke-width:0.5;"/><text fill="#000000" font-family="sans-serif" font-size="14" lengthAdjust="spacing" textLength="226.4404" x="2207.7666" y="292.3942">Report showing all cities in the world</text></g><g id="elem_UC08"><ellipse cx="2623.9481" cy="288.6896" fill="#F1F1F1" rx="136.4481" ry="29.6896" style="stroke:#181818;stroke-width:0.5;"/><text fill="#000000" font-family="sans-serif" font-size="14" lengthAdjust="spacing" textLength="238.1299" x="2504.8832" y="292.4865">Report showing all cities in a continent</text></g><g id="elem_UC09"><ellipse cx="2924.0978" cy="288.5196" fill="#F1F1F1" rx="128.0978" ry="28.0196" style="stroke:#181818;stroke-width:0.5;"/><text fill="#000000" font-family="sans-serif" font-size="14" lengthAdjust="spacing" textLength="220.2266" x="2813.9845" y="292.3164">Report showing all cities in a region</text></g><g id="elem_UC10"><ellipse cx="3218.8498" cy="288.67" fill="#F1F1F1" rx="131.3498" ry="28.67" style="stroke:#181818;stroke-width:0.5;"/><text fill="#000000" font-family="sans-serif" font-size="14" lengthAdjust="spacing" textLength="227.2197" x="3105.24" y="292.4668">Report showing all cities in a country</text></g><g id="elem_UC11"><ellipse cx="3514.8087" cy="288.6617" fill="#F1F1F1" rx="128.8087" ry="28.1617" style="stroke:#181818;stroke-width:0.5;"/><text fill="#000000" font-family="sans-serif" font-size="14" lengthAdjust="spacing" textLength="221.7578" x="3403.9298" y="292.4586">Report showing all cities in a district</text></g><g id="elem_UC12"><ellipse cx="3849.2201" cy="288.344" fill="#F1F1F1" rx="169.7201" ry="36.344" style="stroke:#181818;stroke-width:0.5;"/><text fill="#000000" font-family="sans-serif" font-size="14" lengthAdjust="spacing" textLength="308.1777" x="3695.1313" y="292.1409">Report showing top x populated cities in the world</text></g><g id="elem_UC13"><ellipse cx="4228.8401" cy="288.468" fill="#F1F1F1" rx="175.3401" ry="37.468" style="stroke:#181818;stroke-width:0.5;"/><text fill="#000000" font-family="sans-serif" font-size="14" lengthAdjust="spacing" textLength="319.8672" x="4068.9065" y="292.2649">Report showing top x populated cities in a continent</text></g><g id="elem_UC14"><ellipse cx="4606.2391" cy="288.7478" fill="#F1F1F1" rx="166.7391" ry="35.7478" style="stroke:#181818;stroke-width:0.5;"/><text fill="#000000" font-family="sans-serif" font-size="14" lengthAdjust="spacing" textLength="301.9639" x="4455.2571" y="292.5447">Report showing top x populated cities in a region</text></g><g id="elem_UC15"><ellipse cx="4978.0943" cy="288.4189" fill="#F1F1F1" rx="170.0943" ry="36.4189" style="stroke:#181818;stroke-width:0.5;"/><text fill="#000000" font-family="sans-serif" font-size="14" lengthAdjust="spacing" textLength="308.957" x="4823.6158" y="292.2157">Report showing top x populated cities in a country</text></g><g id="elem_UC16"><ellipse cx="5350.9732" cy="288.3946" fill="#F1F1F1" rx="167.4732" ry="35.8946" style="stroke:#181818;stroke-width:0.5;"/><text fill="#000000" font-family="sans-serif" font-size="14" lengthAdjust="spacing" textLength="303.4951" x="5199.2257" y="292.1915">Report showing top x populated cities in a district</text></g><g id="elem_UC17"><ellipse cx="5705.8655" cy="288.2731" fill="#F1F1F1" rx="151.8655" ry="32.7731" style="stroke:#181818;stroke-width:0.5;"/><text fill="#000000" font-family="sans-serif" font-size="14" lengthAdjust="spacing" textLength="270.7988" x="5570.4661" y="292.07">Report showing all capital cities in the world</text></g><g id="elem_UC18"><ellipse cx="6050.928" cy="288.3856" fill="#F1F1F1" rx="157.428" ry="33.8856" style="stroke:#181818;stroke-width:0.5;"/><text fill="#000000" font-family="sans-serif" font-size="14" lengthAdjust="spacing" textLength="282.4883" x="5909.6838" y="292.1825">Report showing all capital cities in a continent</text></g><g id="elem_UC19"><ellipse cx="6392.9177" cy="288.6835" fill="#F1F1F1" rx="148.9177" ry="32.1835" style="stroke:#181818;stroke-width:0.5;"/><text fill="#000000" font-family="sans-serif" font-size="14" lengthAdjust="spacing" textLength="264.585" x="6260.6252" y="292.4804">Report showing all capital cities in a region</text></g><g id="elem_UC20"><ellipse cx="6768.1191" cy="288.6238" fill="#F1F1F1" rx="191.1191" ry="40.6238" style="stroke:#181818;stroke-width:0.5;"/><text fill="#000000" font-family="sans-serif" font-size="14" lengthAdjust="spacing" textLength="352.5361" x="6591.8511" y="292.4207">Report showing top x populated capital cities in the world</text></g><g id="elem_UC21"><ellipse cx="7190.7875" cy="288.2575" fill="#F1F1F1" rx="196.7875" ry="41.7575" style="stroke:#181818;stroke-width:0.5;"/><text fill="#000000" font-family="sans-serif" font-size="14" lengthAdjust="spacing" textLength="364.2256" x="7008.6747" y="292.0544">Report showing top x populated capital cities in a continent</text></g><g id="elem_UC22"><ellipse cx="7611.1104" cy="288.5221" fill="#F1F1F1" rx="188.1104" ry="40.0221" style="stroke:#181818;stroke-width:0.5;"/><text fill="#000000" font-family="sans-serif" font-size="14" lengthAdjust="spacing" textLength="346.3223" x="7437.9493" y="292.319">Report showing top x populated capital cities in a region</text></g><g id="elem_UC23"><ellipse cx="8022.8714" cy="288.6743" fill="#F1F1F1" rx="188.8714" ry="40.1743" style="stroke:#181818;stroke-width:0.5;"/><text fill="#000000" font-family="sans-serif" font-size="14" lengthAdjust="spacing" textLength="347.8945" x="7848.9241" y="292.4712">Report showing the population distribution in a continent</text></g><g id="elem_UC24"><ellipse cx="8427.2192" cy="288.4438" fill="#F1F1F1" rx="180.2192" ry="38.4438" style="stroke:#181818;stroke-width:0.5;"/><text fill="#000000" font-family="sans-serif" font-size="14" lengthAdjust="spacing" textLength="329.9912" x="8262.2236" y="292.2407">Report showing the population distribution in a region</text></g><g id="elem_UC25"><ellipse cx="8826.0954" cy="288.6191" fill="#F1F1F1" rx="183.5954" ry="39.1191" style="stroke:#181818;stroke-width:0.5;"/><text fill="#000000" font-family="sans-serif" font-size="14" lengthAdjust="spacing" textLength="336.9844" x="8657.6032" y="292.4159">Report showing the population distribution in a country</text></g><g id="elem_UC26"><ellipse cx="9137.8816" cy="288.5763" fill="#F1F1F1" rx="93.3816" ry="21.0763" style="stroke:#181818;stroke-width:0.5;"/><text fill="#000000" font-family="sans-serif" font-size="14" lengthAdjust="spacing" textLength="142.4268" x="9063.6682" y="293.38">Population of the world</text></g><g id="elem_UC27"><ellipse cx="9364.7728" cy="288.5546" fill="#F1F1F1" rx="98.2728" ry="22.0546" style="stroke:#181818;stroke-width:0.5;"/><text fill="#000000" font-family="sans-serif" font-size="14" lengthAdjust="spacing" textLength="154.1162" x="9286.0853" y="292.9329">Population of a continent</text></g><g id="elem_UC28"><ellipse cx="9589.8484" cy="288.5697" fill="#F1F1F1" rx="90.8484" ry="20.5697" style="stroke:#181818;stroke-width:0.5;"/><text fill="#000000" font-family="sans-serif" font-size="14" lengthAdjust="spacing" textLength="136.2129" x="9518.7419" y="293.3734">Population of a region</text></g><g id="elem_UC29"><ellipse cx="9810.2018" cy="288.6404" fill="#F1F1F1" rx="93.7018" ry="21.1404" style="stroke:#181818;stroke-width:0.5;"/><text fill="#000000" font-family="sans-serif" font-size="14" lengthAdjust="spacing" textLength="143.2061" x="9735.5988" y="293.4441">Population of a country</text></g><g id="elem_UC30"><ellipse cx="10029.9692" cy="288.6938" fill="#F1F1F1" rx="91.4692" ry="20.6938" style="stroke:#181818;stroke-width:0.5;"/><text fill="#000000" font-family="sans-serif" font-size="14" lengthAdjust="spacing" textLength="137.7441" x="9958.0972" y="293.4976">Population of a district</text></g><g id="elem_UC31"><ellipse cx="10240.7687" cy="288.6537" fill="#F1F1F1" rx="83.7687" ry="19.1537" style="stroke:#181818;stroke-width:0.5;"/><text fill="#000000" font-family="sans-serif" font-size="14" lengthAdjust="spacing" textLength="118.2959" x="10178.6207" y="293.4574">Population of a city</text></g><g id="elem_UC32"><ellipse cx="10637.1898" cy="288.338" fill="#F1F1F1" rx="277.1898" ry="57.838" style="stroke:#181818;stroke-width:0.5;"/><text fill="#000000" font-family="sans-serif" font-size="14" lengthAdjust="spacing" textLength="528.418" x="10372.9808" y="292.1348">Number of people in the world speaking Chinese, English, Hindi, Spanish and Arabic.</text></g><g id="elem_UC33"><ellipse cx="5523.2229" cy="443.0446" fill="#F1F1F1" rx="75.7229" ry="17.5446" style="stroke:#181818;stroke-width:0.5;"/><text fill="#000000" font-family="sans-serif" font-size="14" lengthAdjust="spacing" textLength="96.5166" x="5471.9646" y="447.8483">Input Validation</text></g><g id="elem_UC34"><ellipse cx="5523.0099" cy="539.602" fill="#F1F1F1" rx="78.5099" ry="18.102" style="stroke:#181818;stroke-width:0.5;"/><text fill="#000000" font-family="sans-serif" font-size="14" lengthAdjust="spacing" textLength="104.2822" x="5467.8688" y="544.4057">Generate Report</text></g><g id="elem_UC35"><ellipse cx="5523.0241" cy="653.5048" fill="#F1F1F1" rx="73.0241" ry="17.0048" style="stroke:#181818;stroke-width:0.5;"/><text fill="#000000" font-family="sans-serif" font-size="14" lengthAdjust="spacing" textLength="88.7031" x="5475.6726" y="658.3085">Data Retrieval</text></g><!--entity User--><g id="elem_User"><ellipse cx="5457.186" cy="14" fill="#F1F1F1" rx="8" ry="8" style="stroke:#181818;stroke-width:0.5;"/><path d="M5457.186,22 L5457.186,49 M5444.186,30 L5470.186,30 M5457.186,49 L5444.186,64 M5457.186,49 L5470.186,64 " fill="none" style="stroke:#181818;stroke-width:0.5;"/><text fill="#000000" font-family="sans-serif" font-size="14" lengthAdjust="spacing" textLength="79.3721" x="5417.5" y="80.6074">Data Analyst</text></g><!--entity Database--><g id="elem_Database"><rect fill="#F1F1F1" height="38.6211" rx="2.5" ry="2.5" style="stroke:#181818;stroke-width:0.5;" width="79.9307" x="5483" y="733.5"/><text fill="#000000" font-family="sans-serif" font-size="14" lengthAdjust="spacing" textLength="59.9307" x="5493" y="758.6074">Database</text></g><!--link User to UC01--><g id="link_User_UC01"><path d="M5417.21,46.34 C5044.21,49.56 2154.88,75.57 1290,114.5 C860.83,133.82 733.72,50.15 326,185.5 C278.63,201.22 236.0057,230.3503 205.2557,254.5403 " fill="none" id="User-to-UC01" style="stroke:#181818;stroke-width:1.0;"/><polygon fill="#181818" points="200.54,258.25,210.0867,255.8293,204.4698,255.1586,205.1405,249.5416,200.54,258.25" style="stroke:#181818;stroke-width:1.0;"/></g><!--link User to UC02--><g id="link_User_UC02"><path d="M5417.19,45.89 C4983.33,44.88 1139.75,40.02 658,185.5 C609.27,200.22 565.2263,229.2355 533.2763,253.6655 " fill="none" id="User-to-UC02" style="stroke:#181818;stroke-width:1.0;"/><polygon fill="#181818" points="528.51,257.31,538.0891,255.0208,532.4819,254.2729,533.2298,248.6657,528.51,257.31" style="stroke:#181818;stroke-width:1.0;"/></g><!--link User to UC03--><g id="link_User_UC03"><path d="M5417.48,46.68 C5169.21,51.01 3799.37,75.82 2683,114.5 C2055.2,136.25 1898.78,155.1 1271,177.5 C1237.79,178.69 1003.74,175.63 972,185.5 C924.36,200.31 882.0348,230.2197 852.0748,254.8497 " fill="none" id="User-to-UC03" style="stroke:#181818;stroke-width:1.0;"/><polygon fill="#181818" points="847.44,258.66,856.9324,256.0345,851.3024,255.4848,851.8521,249.8547,847.44,258.66" style="stroke:#181818;stroke-width:1.0;"/></g><!--link User to UC04--><g id="link_User_UC04"><path d="M5417.38,46.35 C5169.93,48.67 3811.41,63.32 2705,114.5 C2290.72,133.66 2188.33,159.39 1774,177.5 C1729.15,179.46 1413.54,174.53 1370,185.5 C1317.48,198.73 1268.2211,224.6873 1229.6111,248.4273 " fill="none" id="User-to-UC04" style="stroke:#181818;stroke-width:1.0;"/><polygon fill="#181818" points="1224.5,251.57,1234.2618,250.2634,1228.7593,248.9511,1230.0716,243.4486,1224.5,251.57" style="stroke:#181818;stroke-width:1.0;"/></g><!--link User to UC05--><g id="link_User_UC05"><path d="M5417.22,45.95 C5170.2,45.87 3820.78,48.59 2723,114.5 C2427.98,132.21 2355.99,159.28 2061,177.5 C2029.82,179.43 1810.3,177.92 1780,185.5 C1727.36,198.67 1677.7388,223.7432 1638.0588,247.1332 " fill="none" id="User-to-UC05" style="stroke:#181818;stroke-width:1.0;"/><polygon fill="#181818" points="1632.89,250.18,1642.6745,249.0556,1637.1974,247.641,1638.612,242.1639,1632.89,250.18" style="stroke:#181818;stroke-width:1.0;"/></g><!--link User to UC06--><g id="link_User_UC06"><path d="M5417.24,46.45 C5123.99,49.88 3292.64,72.68 2739,114.5 C2516.1,131.34 2461.87,150.25 2240,177.5 C2210.23,181.16 2201.66,176.69 2173,185.5 C2122.38,201.06 2074.4629,226.2563 2036.1729,249.0963 " fill="none" id="User-to-UC06" style="stroke:#181818;stroke-width:1.0;"/><polygon fill="#181818" points="2031.02,252.17,2040.7985,250.9947,2035.3141,249.6086,2036.7002,244.1242,2031.02,252.17" style="stroke:#181818;stroke-width:1.0;"/></g><!--link User to UC07--><g id="link_User_UC07"><path d="M5417.26,46.78 C5210.74,50.96 4239,72.09 3445,114.5 C3011.14,137.67 2880.11,42.04 2470,185.5 C2423.69,201.7 2382.8644,232.2923 2354.5844,256.6723 " fill="none" id="User-to-UC07" style="stroke:#181818;stroke-width:1.0;"/><polygon fill="#181818" points="2350.04,260.59,2359.4684,257.7431,2353.827,257.3252,2354.2448,251.6838,2350.04,260.59" style="stroke:#181818;stroke-width:1.0;"/></g><!--link User to UC08--><g id="link_User_UC08"><path d="M5417.3,46.79 C5104.34,53.16 3040.09,98.31 2779,185.5 C2731.79,201.26 2689.7398,231.3336 2660.1398,255.7336 " fill="none" id="User-to-UC08" style="stroke:#181818;stroke-width:1.0;"/><polygon fill="#181818" points="2655.51,259.55,2664.999,256.9119,2659.3681,256.3696,2659.9104,250.7388,2655.51,259.55" style="stroke:#181818;stroke-width:1.0;"/></g><!--link User to UC09--><g id="link_User_UC09"><path d="M5417.38,47.18 C5213.5,53.4 4262.22,84.52 3486,145.5 C3300.83,160.05 3244.3,121.32 3070,185.5 C3024.45,202.28 2984.3648,232.8882 2956.6948,257.1082 " fill="none" id="User-to-UC09" style="stroke:#181818;stroke-width:1.0;"/><polygon fill="#181818" points="2952.18,261.06,2961.5867,258.1421,2955.9423,257.7668,2956.3176,252.1224,2952.18,261.06" style="stroke:#181818;stroke-width:1.0;"/></g><!--link User to UC10--><g id="link_User_UC10"><path d="M5417.35,46.98 C5248.12,51.34 4569.69,70.77 4014,114.5 C3726.49,137.13 3639.57,85.69 3369,185.5 C3323.06,202.45 3282.1711,232.5772 3253.5511,256.6572 " fill="none" id="User-to-UC10" style="stroke:#181818;stroke-width:1.0;"/><polygon fill="#181818" points="3248.96,260.52,3258.4219,257.7865,3252.7859,257.301,3253.2715,251.665,3248.96,260.52" style="stroke:#181818;stroke-width:1.0;"/></g><!--link User to UC11--><g id="link_User_UC11"><path d="M5417.2,46.22 C5184.68,47.93 4000.64,62.63 3662,185.5 C3616.16,202.13 3575.7748,232.7897 3547.9048,257.0597 " fill="none" id="User-to-UC11" style="stroke:#181818;stroke-width:1.0;"/><polygon fill="#181818" points="3543.38,261,3552.7941,258.106,3547.1507,257.7164,3547.5403,252.073,3543.38,261" style="stroke:#181818;stroke-width:1.0;"/></g><!--link User to UC12--><g id="link_User_UC12"><path d="M5417.43,47.7 C5216.13,56.7 4304.83,101.45 4036,185.5 C3986.41,201 3939.9885,226.9833 3903.6185,250.1833 " fill="none" id="User-to-UC12" style="stroke:#181818;stroke-width:1.0;"/><polygon fill="#181818" points="3898.56,253.41,3908.2989,251.9422,3902.7754,250.721,3903.9965,245.1976,3898.56,253.41" style="stroke:#181818;stroke-width:1.0;"/></g><!--link User to UC13--><g id="link_User_UC13"><path d="M5417.38,46.38 C5277.6,48.76 4795.82,65.72 4422,185.5 C4372.19,201.46 4325.1285,226.7357 4287.5985,249.5257 " fill="none" id="User-to-UC13" style="stroke:#181818;stroke-width:1.0;"/><polygon fill="#181818" points="4282.47,252.64,4292.2389,251.3876,4286.7437,250.0448,4288.0866,244.5496,4282.47,252.64" style="stroke:#181818;stroke-width:1.0;"/></g><!--link User to UC14--><g id="link_User_UC14"><path d="M5417.2,50.16 C5312.09,62.02 5019.44,100.77 4791,185.5 C4743.03,203.29 4697.5083,228.8166 4661.3583,251.2466 " fill="none" id="User-to-UC14" style="stroke:#181818;stroke-width:1.0;"/><polygon fill="#181818" points="4656.26,254.41,4666.0164,253.0638,4660.5086,251.7739,4661.7986,246.2661,4656.26,254.41" style="stroke:#181818;stroke-width:1.0;"/></g><!--link User to UC15--><g id="link_User_UC15"><path d="M5417.15,64.33 C5360.81,90.42 5254.82,140.15 5166,185.5 C5122.68,207.62 5079.712,230.9089 5042.962,251.2089 " fill="none" id="User-to-UC15" style="stroke:#181818;stroke-width:1.0;"/><polygon fill="#181818" points="5037.71,254.11,5047.5221,253.2597,5042.0867,251.6924,5043.6539,246.257,5037.71,254.11" style="stroke:#181818;stroke-width:1.0;"/></g><!--link User to UC16--><g id="link_User_UC16"><path d="M5440.09,84.53 C5419.75,130.88 5388.3121,202.4962 5368.7121,247.1362 " fill="none" id="User-to-UC16" style="stroke:#181818;stroke-width:1.0;"/><polygon fill="#181818" points="5366.3,252.63,5373.5807,245.9974,5368.3101,248.0519,5366.2557,242.7812,5366.3,252.63" style="stroke:#181818;stroke-width:1.0;"/></g><!--link User to UC17--><g id="link_User_UC17"><path d="M5496.73,84.53 C5545.75,132.07 5623.8429,207.8228 5669.2429,251.8528 " fill="none" id="User-to-UC17" style="stroke:#181818;stroke-width:1.0;"/><polygon fill="#181818" points="5673.55,256.03,5669.8741,246.8928,5669.9607,252.549,5664.3045,252.6357,5673.55,256.03" style="stroke:#181818;stroke-width:1.0;"/></g><!--link User to UC18--><g id="link_User_UC18"><path d="M5496.73,56.27 C5572.37,76.46 5741.52,124.71 5876,185.5 C5920.7,205.71 5963.5782,230.9743 5997.9582,252.7043 " fill="none" id="User-to-UC18" style="stroke:#181818;stroke-width:1.0;"/><polygon fill="#181818" points="6003.03,255.91,5997.5593,247.7203,5998.8035,253.2386,5993.2851,254.4827,6003.03,255.91" style="stroke:#181818;stroke-width:1.0;"/></g><!--link User to UC19--><g id="link_User_UC19"><path d="M5496.77,48.07 C5612.83,55.18 5959.72,84.09 6226,185.5 C6272.67,203.27 6315.9229,230.7891 6348.4529,253.9591 " fill="none" id="User-to-UC19" style="stroke:#181818;stroke-width:1.0;"/><polygon fill="#181818" points="6353.34,257.44,6348.33,248.9606,6349.2674,254.5393,6343.6888,255.4767,6353.34,257.44" style="stroke:#181818;stroke-width:1.0;"/></g><!--link User to UC20--><g id="link_User_UC20"><path d="M5496.56,46.3 C5641.72,48.37 6157.54,64.35 6560,185.5 C6611.22,200.92 6660.1138,224.9385 6700.3138,247.2485 " fill="none" id="User-to-UC20" style="stroke:#181818;stroke-width:1.0;"/><polygon fill="#181818" points="6705.56,250.16,6699.6317,242.2952,6701.1881,247.7337,6695.7496,249.2902,6705.56,250.16" style="stroke:#181818;stroke-width:1.0;"/></g><!--link User to UC21--><g id="link_User_UC21"><path d="M5496.79,47.7 C5706.61,56.96 6685.95,103.94 6977,185.5 C7028.92,200.05 7078.4637,223.5633 7119.6137,245.8433 " fill="none" id="User-to-UC21" style="stroke:#181818;stroke-width:1.0;"/><polygon fill="#181818" points="7124.89,248.7,7118.8801,240.8974,7120.4931,246.3194,7115.0711,247.9324,7124.89,248.7" style="stroke:#181818;stroke-width:1.0;"/></g><!--link User to UC22--><g id="link_User_UC22"><path d="M5496.74,46.7 C5739.79,51.28 7027.7,80.28 7406,185.5 C7457.7,199.88 7506.6814,224.4643 7546.3514,247.3243 " fill="none" id="User-to-UC22" style="stroke:#181818;stroke-width:1.0;"/><polygon fill="#181818" points="7551.55,250.32,7545.7492,242.3607,7547.2178,247.8236,7541.7549,249.2922,7551.55,250.32" style="stroke:#181818;stroke-width:1.0;"/></g><!--link User to UC23--><g id="link_User_UC23"><path d="M5496.91,46.07 C5769.06,46.88 7354.8,57.12 7817,185.5 C7868.91,199.92 7918.1538,224.5175 7958.0238,247.3575 " fill="none" id="User-to-UC23" style="stroke:#181818;stroke-width:1.0;"/><polygon fill="#181818" points="7963.23,250.34,7957.4089,242.3955,7958.8915,247.8546,7953.4323,249.3371,7963.23,250.34" style="stroke:#181818;stroke-width:1.0;"/></g><!--link User to UC24--><g id="link_User_UC24"><path d="M5496.63,46.71 C5697.52,50.45 6623.43,69.45 7380,114.5 C7758.42,137.03 7865.73,80.54 8230,185.5 C8280.89,200.16 8328.8044,225.3974 8367.0244,248.4874 " fill="none" id="User-to-UC24" style="stroke:#181818;stroke-width:1.0;"/><polygon fill="#181818" points="8372.16,251.59,8366.525,243.5124,8367.8804,249.0045,8362.3883,250.3599,8372.16,251.59" style="stroke:#181818;stroke-width:1.0;"/></g><!--link User to UC25--><g id="link_User_UC25"><path d="M5496.57,46.81 C5738.08,51.93 7038.29,81.46 8097,145.5 C8331.91,159.71 8398.35,122.14 8625,185.5 C8676.63,199.93 8725.4083,225.0711 8764.3883,248.1711 " fill="none" id="User-to-UC25" style="stroke:#181818;stroke-width:1.0;"/><polygon fill="#181818" points="8769.55,251.23,8763.8467,243.2005,8765.2486,248.6809,8759.7682,250.0828,8769.55,251.23" style="stroke:#181818;stroke-width:1.0;"/></g><!--link User to UC26--><g id="link_User_UC26"><path d="M5496.74,45.88 C5865.56,44.94 8684.77,42.51 9027,185.5 C9068.54,202.85 9100.6714,238.1977 9119.7214,262.6377 " fill="none" id="User-to-UC26" style="stroke:#181818;stroke-width:1.0;"/><polygon fill="#181818" points="9123.41,267.37,9121.0319,257.8126,9120.3362,263.4265,9114.7223,262.7307,9123.41,267.37" style="stroke:#181818;stroke-width:1.0;"/></g><!--link User to UC27--><g id="link_User_UC27"><path d="M5496.66,46.43 C5813.43,49.92 7937.06,74.59 8577,114.5 C8876.75,133.2 8974.08,64.59 9249,185.5 C9290.49,203.75 9323.8618,237.7803 9344.4018,261.9203 " fill="none" id="User-to-UC27" style="stroke:#181818;stroke-width:1.0;"/><polygon fill="#181818" points="9348.29,266.49,9345.5042,257.0434,9345.0498,262.6819,9339.4113,262.2276,9348.29,266.49" style="stroke:#181818;stroke-width:1.0;"/></g><!--link User to UC28--><g id="link_User_UC28"><path d="M5496.5,45.81 C5773.38,44.7 7451.76,41.32 8815,114.5 C9112.25,130.46 9211.71,58.63 9481,185.5 C9521.33,204.5 9552.9534,239.2997 9571.8034,263.1897 " fill="none" id="User-to-UC28" style="stroke:#181818;stroke-width:1.0;"/><polygon fill="#181818" points="9575.52,267.9,9573.0853,258.3568,9572.4228,263.9747,9566.8049,263.3123,9575.52,267.9" style="stroke:#181818;stroke-width:1.0;"/></g><!--link User to UC29--><g id="link_User_UC29"><path d="M5496.68,46.37 C5840.44,49.62 8319.56,74.23 9064,114.5 C9347.57,129.84 9442.14,64.39 9699,185.5 C9739.48,204.59 9771.626,239.0237 9791.016,262.8837 " fill="none" id="User-to-UC29" style="stroke:#181818;stroke-width:1.0;"/><polygon fill="#181818" points="9794.8,267.54,9792.2282,258.0328,9791.6467,263.6597,9786.0198,263.0782,9794.8,267.54" style="stroke:#181818;stroke-width:1.0;"/></g><!--link User to UC30--><g id="link_User_UC30"><path d="M5496.66,46.3 C5852.43,49.04 8500.28,70.75 9294,114.5 C9574.02,129.93 9667.77,64.98 9921,185.5 C9961.25,204.66 9992.894,239.4171 10011.774,263.2471 " fill="none" id="User-to-UC30" style="stroke:#181818;stroke-width:1.0;"/><polygon fill="#181818" points="10015.5,267.95,10013.0463,258.4117,10012.395,264.0309,10006.7758,263.3797,10015.5,267.95" style="stroke:#181818;stroke-width:1.0;"/></g><!--link User to UC31--><g id="link_User_UC31"><path d="M5496.66,46.25 C5863.96,48.61 8677.79,68.03 9520,114.5 C9796.49,129.76 9891.08,62.14 10139,185.5 C10178.46,205.13 10208.361,241.1131 10225.391,264.7331 " fill="none" id="User-to-UC31" style="stroke:#181818;stroke-width:1.0;"/><polygon fill="#181818" points="10228.9,269.6,10226.8811,259.9603,10225.9758,265.5443,10220.3919,264.639,10228.9,269.6" style="stroke:#181818;stroke-width:1.0;"/></g><!--link User to UC32--><g id="link_User_UC32"><path d="M5496.5,46.19 C5874.56,48.13 8858.29,64.81 9750,114.5 C10015.03,129.27 10085.22,122.2 10343,185.5 C10398.09,199.03 10451.8079,216.5788 10502.6679,234.9788 " fill="none" id="User-to-UC32" style="stroke:#181818;stroke-width:1.0;"/><polygon fill="#181818" points="10508.31,237.02,10501.2076,230.1968,10503.6082,235.319,10498.486,237.7196,10508.31,237.02" style="stroke:#181818;stroke-width:1.0;"/></g><!--link UC01 to UC33--><g id="link_UC01_UC33"><path d="M230.39,316.21 C259.19,327.17 293.83,339.01 326,346.5 C510.76,389.5 560.67,383.67 750,395.5 C1237.46,425.96 4868.88,439.7291 5441.28,441.7191 " fill="none" id="UC01-to-UC33" style="stroke:#181818;stroke-width:1.0;stroke-dasharray:7.0,7.0;"/><polygon fill="#181818" points="5447.28,441.74,5438.294,437.7087,5442.28,441.7226,5438.2661,445.7087,5447.28,441.74" style="stroke:#181818;stroke-width:1.0;"/><text fill="#000000" font-family="sans-serif" font-size="13" lengthAdjust="spacing" textLength="62.1563" x="751" y="391.5283">&#171;includes&#187;</text></g><!--link UC02 to UC33--><g id="link_UC02_UC33"><path d="M560.91,316.84 C590.4,327.57 625.47,339.07 658,346.5 C838.21,387.64 886.54,383.63 1071,395.5 C1524.3,424.67 4892.7,439.4557 5441.63,441.6757 " fill="none" id="UC02-to-UC33" style="stroke:#181818;stroke-width:1.0;stroke-dasharray:7.0,7.0;"/><polygon fill="#181818" points="5447.63,441.7,5438.6463,437.6636,5442.63,441.6798,5438.6139,445.6636,5447.63,441.7" style="stroke:#181818;stroke-width:1.0;"/><text fill="#000000" font-family="sans-serif" font-size="13" lengthAdjust="spacing" textLength="62.1563" x="1072" y="391.5283">&#171;includes&#187;</text></g><!--link UC03 to UC33--><g id="link_UC03_UC33"><path d="M876.55,315.98 C905.08,327.17 939.74,339.27 972,346.5 C1201.1,397.87 1263.53,383.24 1498,395.5 C2309.07,437.89 4959.47,441.6359 5441.6,441.9659 " fill="none" id="UC03-to-UC33" style="stroke:#181818;stroke-width:1.0;stroke-dasharray:7.0,7.0;"/><polygon fill="#181818" points="5447.6,441.97,5438.6,437.97,5442.6,441.97,5438.6,445.97,5447.6,441.97" style="stroke:#181818;stroke-width:1.0;"/><text fill="#000000" font-family="sans-serif" font-size="13" lengthAdjust="spacing" textLength="62.1563" x="1499" y="391.5283">&#171;includes&#187;</text></g><!--link UC04 to UC33--><g id="link_UC04_UC33"><path d="M1267.8,321.15 C1300.01,330.63 1336.27,340.17 1370,346.5 C1602.5,390.15 1663.77,383.08 1900,395.5 C2625.94,433.66 4988.2,440.8064 5441.59,441.8364 " fill="none" id="UC04-to-UC33" style="stroke:#181818;stroke-width:1.0;stroke-dasharray:7.0,7.0;"/><polygon fill="#181818" points="5447.59,441.85,5438.5991,437.8296,5442.59,441.8386,5438.5809,445.8295,5447.59,441.85" style="stroke:#181818;stroke-width:1.0;"/><text fill="#000000" font-family="sans-serif" font-size="13" lengthAdjust="spacing" textLength="62.1563" x="1901" y="391.5283">&#171;includes&#187;</text></g><!--link UC05 to UC33--><g id="link_UC05_UC33"><path d="M1678.22,321.9 C1710.54,331.04 1746.51,340.2 1780,346.5 C1993.36,386.61 2049.26,383.05 2266,395.5 C2914.38,432.74 5015.16,440.5728 5441.4,441.7928 " fill="none" id="UC05-to-UC33" style="stroke:#181818;stroke-width:1.0;stroke-dasharray:7.0,7.0;"/><polygon fill="#181818" points="5447.4,441.81,5438.4115,437.7843,5442.4,441.7957,5438.3886,445.7842,5447.4,441.81" style="stroke:#181818;stroke-width:1.0;"/><text fill="#000000" font-family="sans-serif" font-size="13" lengthAdjust="spacing" textLength="62.1563" x="2267" y="391.5283">&#171;includes&#187;</text></g><!--link UC06 to UC33--><g id="link_UC06_UC33"><path d="M2072.47,320.55 C2104.23,329.93 2139.89,339.57 2173,346.5 C2335.79,380.6 2378.13,383.29 2544,395.5 C3133.2,438.86 5036.93,441.8578 5441.33,442.0078 " fill="none" id="UC06-to-UC33" style="stroke:#181818;stroke-width:1.0;stroke-dasharray:7.0,7.0;"/><polygon fill="#181818" points="5447.33,442.01,5438.33,438.01,5442.33,442.01,5438.33,446.01,5447.33,442.01" style="stroke:#181818;stroke-width:1.0;"/><text fill="#000000" font-family="sans-serif" font-size="13" lengthAdjust="spacing" textLength="62.1563" x="2545" y="391.5283">&#171;includes&#187;</text></g><!--link UC07 to UC33--><g id="link_UC07_UC33"><path d="M2376.58,314.41 C2404.16,325.83 2438.3,338.56 2470,346.5 C2638.6,388.74 2684.63,383.08 2858,395.5 C3381.44,433.01 5063.31,440.5303 5441.38,441.7703 " fill="none" id="UC07-to-UC33" style="stroke:#181818;stroke-width:1.0;stroke-dasharray:7.0,7.0;"/><polygon fill="#181818" points="5447.38,441.79,5438.3932,437.7605,5442.38,441.7736,5438.3669,445.7605,5447.38,441.79" style="stroke:#181818;stroke-width:1.0;"/><text fill="#000000" font-family="sans-serif" font-size="13" lengthAdjust="spacing" textLength="62.1563" x="2859" y="391.5283">&#171;includes&#187;</text></g><!--link UC08 to UC33--><g id="link_UC08_UC33"><path d="M2684.14,315.12 C2712.46,326.28 2746.99,338.59 2779,346.5 C2939.18,386.1 2982.48,382.98 3147,395.5 C3609.94,430.74 5089.3201,439.9309 5441.5701,441.6409 " fill="none" id="UC08-to-UC33" style="stroke:#181818;stroke-width:1.0;stroke-dasharray:7.0,7.0;"/><polygon fill="#181818" points="5447.57,441.67,5438.5895,437.6264,5442.5701,441.6457,5438.5507,445.6263,5447.57,441.67" style="stroke:#181818;stroke-width:1.0;"/><text fill="#000000" font-family="sans-serif" font-size="13" lengthAdjust="spacing" textLength="62.1563" x="3148" y="391.5283">&#171;includes&#187;</text></g><!--link UC09 to UC33--><g id="link_UC09_UC33"><path d="M2977.39,313.96 C3004.59,325.49 3038.5,338.44 3070,346.5 C3234.55,388.59 3279.64,382.69 3449,395.5 C3849.1,425.76 5117.8502,438.5179 5441.6402,441.3279 " fill="none" id="UC09-to-UC33" style="stroke:#181818;stroke-width:1.0;stroke-dasharray:7.0,7.0;"/><polygon fill="#181818" points="5447.64,441.38,5438.6751,437.302,5442.6402,441.3366,5438.6056,445.3017,5447.64,441.38" style="stroke:#181818;stroke-width:1.0;"/><text fill="#000000" font-family="sans-serif" font-size="13" lengthAdjust="spacing" textLength="62.1563" x="3450" y="391.5283">&#171;includes&#187;</text></g><!--link UC10 to UC33--><g id="link_UC10_UC33"><path d="M3274.97,314.39 C3302.74,325.81 3337.11,338.54 3369,346.5 C3537.21,388.48 3583.13,382.31 3756,395.5 C4092.59,421.17 5149.6406,436.9787 5441.9706,440.9387 " fill="none" id="UC10-to-UC33" style="stroke:#181818;stroke-width:1.0;stroke-dasharray:7.0,7.0;"/><polygon fill="#181818" points="5447.97,441.02,5439.025,436.8985,5442.9705,440.9523,5438.9166,444.8977,5447.97,441.02" style="stroke:#181818;stroke-width:1.0;"/><text fill="#000000" font-family="sans-serif" font-size="13" lengthAdjust="spacing" textLength="62.1563" x="3757" y="391.5283">&#171;includes&#187;</text></g><!--link UC11 to UC33--><g id="link_UC11_UC33"><path d="M3567.96,314.19 C3595.43,325.92 3629.88,338.99 3662,346.5 C3899.68,402.06 3965.39,380.29 4209,395.5 C4680.03,424.91 5241.291,437.0422 5442.111,440.6522 " fill="none" id="UC11-to-UC33" style="stroke:#181818;stroke-width:1.0;stroke-dasharray:7.0,7.0;"/><polygon fill="#181818" points="5448.11,440.76,5439.1833,436.5989,5443.1108,440.6701,5439.0396,444.5976,5448.11,440.76" style="stroke:#181818;stroke-width:1.0;"/><text fill="#000000" font-family="sans-serif" font-size="13" lengthAdjust="spacing" textLength="62.1563" x="4210" y="391.5283">&#171;includes&#187;</text></g><!--link UC12 to UC33--><g id="link_UC12_UC33"><path d="M3936.09,319.93 C3967.26,329.78 4002.89,339.87 4036,346.5 C4311.06,401.56 5181.2928,431.6869 5442.6928,439.6669 " fill="none" id="UC12-to-UC33" style="stroke:#181818;stroke-width:1.0;stroke-dasharray:7.0,7.0;"/><polygon fill="#181818" points="5448.69,439.85,5439.8162,435.5772,5443.6923,439.6974,5439.5721,443.5735,5448.69,439.85" style="stroke:#181818;stroke-width:1.0;"/><text fill="#000000" font-family="sans-serif" font-size="13" lengthAdjust="spacing" textLength="62.1563" x="4462" y="391.5283">&#171;includes&#187;</text></g><!--link UC13 to UC33--><g id="link_UC13_UC33"><path d="M4321.41,320.47 C4353.01,330.07 4388.77,339.86 4422,346.5 C4802.29,422.49 5262.4109,437.914 5441.7709,441.084 " fill="none" id="UC13-to-UC33" style="stroke:#181818;stroke-width:1.0;stroke-dasharray:7.0,7.0;"/><polygon fill="#181818" points="5447.77,441.19,5438.8421,437.0316,5442.7708,441.1016,5438.7007,445.0303,5447.77,441.19" style="stroke:#181818;stroke-width:1.0;"/><text fill="#000000" font-family="sans-serif" font-size="13" lengthAdjust="spacing" textLength="62.1563" x="4722" y="391.5283">&#171;includes&#187;</text></g><!--link UC14 to UC33--><g id="link_UC14_UC33"><path d="M4691.32,319.09 C4722.39,328.99 4758,339.32 4791,346.5 C5030.5,398.63 5314.7094,425.6878 5446.1894,436.2878 " fill="none" id="UC14-to-UC33" style="stroke:#181818;stroke-width:1.0;stroke-dasharray:7.0,7.0;"/><polygon fill="#181818" points="5452.17,436.77,5443.5205,432.0597,5447.1862,436.3682,5442.8777,440.0338,5452.17,436.77" style="stroke:#181818;stroke-width:1.0;"/><text fill="#000000" font-family="sans-serif" font-size="13" lengthAdjust="spacing" textLength="62.1563" x="5071" y="391.5283">&#171;includes&#187;</text></g><!--link UC15 to UC33--><g id="link_UC15_UC33"><path d="M5072.98,318.96 C5102.7,328 5135.66,337.85 5166,346.5 C5275.82,377.83 5399.7104,410.2603 5468.5504,428.0303 " fill="none" id="UC15-to-UC33" style="stroke:#181818;stroke-width:1.0;stroke-dasharray:7.0,7.0;"/><polygon fill="#181818" points="5474.36,429.53,5466.6454,423.4075,5469.5187,428.2803,5464.6459,431.1536,5474.36,429.53" style="stroke:#181818;stroke-width:1.0;"/><text fill="#000000" font-family="sans-serif" font-size="13" lengthAdjust="spacing" textLength="62.1563" x="5342" y="391.5283">&#171;includes&#187;</text></g><!--link UC16 to UC33--><g id="link_UC16_UC33"><path d="M5389.6,323.72 C5425.45,355.51 5472.8001,397.4999 5500.1001,421.6999 " fill="none" id="UC16-to-UC33" style="stroke:#181818;stroke-width:1.0;stroke-dasharray:7.0,7.0;"/><polygon fill="#181818" points="5504.59,425.68,5500.5085,416.7167,5500.8484,422.3633,5495.2018,422.7032,5504.59,425.68" style="stroke:#181818;stroke-width:1.0;"/><text fill="#000000" font-family="sans-serif" font-size="13" lengthAdjust="spacing" textLength="62.1563" x="5468" y="391.5283">&#171;includes&#187;</text></g><!--link UC17 to UC33--><g id="link_UC17_UC33"><path d="M5668.53,320.73 C5630.25,352.62 5576.9389,397.0484 5547.0289,421.9784 " fill="none" id="UC17-to-UC33" style="stroke:#181818;stroke-width:1.0;stroke-dasharray:7.0,7.0;"/><polygon fill="#181818" points="5542.42,425.82,5551.8945,423.1303,5546.2608,422.6187,5546.7724,416.985,5542.42,425.82" style="stroke:#181818;stroke-width:1.0;"/><text fill="#000000" font-family="sans-serif" font-size="13" lengthAdjust="spacing" textLength="62.1563" x="5599" y="391.5283">&#171;includes&#187;</text></g><!--link UC18 to UC33--><g id="link_UC18_UC33"><path d="M5968.04,317.47 C5939.02,327 5906.16,337.51 5876,346.5 C5768.15,378.63 5646.2323,410.5608 5577.8523,428.0808 " fill="none" id="UC18-to-UC33" style="stroke:#181818;stroke-width:1.0;stroke-dasharray:7.0,7.0;"/><polygon fill="#181818" points="5572.04,429.57,5581.7512,431.2111,5576.8835,428.329,5579.7656,423.4614,5572.04,429.57" style="stroke:#181818;stroke-width:1.0;"/><text fill="#000000" font-family="sans-serif" font-size="13" lengthAdjust="spacing" textLength="62.1563" x="5770" y="391.5283">&#171;includes&#187;</text></g><!--link UC19 to UC33--><g id="link_UC19_UC33"><path d="M6322.78,316.85 C6293.28,327.46 6258.35,338.86 6226,346.5 C5998.4,400.27 5727.6712,426.3358 5599.9012,436.4658 " fill="none" id="UC19-to-UC33" style="stroke:#181818;stroke-width:1.0;stroke-dasharray:7.0,7.0;"/><polygon fill="#181818" points="5593.92,436.94,5603.208,440.2162,5598.9044,436.5448,5602.5757,432.2412,5593.92,436.94" style="stroke:#181818;stroke-width:1.0;"/><text fill="#000000" font-family="sans-serif" font-size="13" lengthAdjust="spacing" textLength="62.1563" x="6074" y="391.5283">&#171;includes&#187;</text></g><!--link UC20 to UC33--><g id="link_UC20_UC33"><path d="M6661.04,322.11 C6628.8,331.04 6593.17,340.04 6560,346.5 C6203.98,415.89 5775.0773,434.9916 5603.5973,440.0916 " fill="none" id="UC20-to-UC33" style="stroke:#181818;stroke-width:1.0;stroke-dasharray:7.0,7.0;"/><polygon fill="#181818" points="5597.6,440.27,5606.7149,444.0007,5602.5978,440.1214,5606.4771,436.0042,5597.6,440.27" style="stroke:#181818;stroke-width:1.0;"/><text fill="#000000" font-family="sans-serif" font-size="13" lengthAdjust="spacing" textLength="62.1563" x="6364" y="391.5283">&#171;includes&#187;</text></g><!--link UC21 to UC33--><g id="link_UC21_UC33"><path d="M7079.07,323.15 C7046.42,331.93 7010.51,340.57 6977,346.5 C6455.76,438.79 5821.1899,444.0424 5604.6099,442.8724 " fill="none" id="UC21-to-UC33" style="stroke:#181818;stroke-width:1.0;stroke-dasharray:7.0,7.0;"/><polygon fill="#181818" points="5598.61,442.84,5607.5883,446.8886,5603.6099,442.867,5607.6315,438.8887,5598.61,442.84" style="stroke:#181818;stroke-width:1.0;"/><text fill="#000000" font-family="sans-serif" font-size="13" lengthAdjust="spacing" textLength="62.1563" x="6782" y="391.5283">&#171;includes&#187;</text></g><!--link UC22 to UC33--><g id="link_UC22_UC33"><path d="M7508.09,322.08 C7475.71,331.25 7439.62,340.39 7406,346.5 C7049.73,411.25 5908.7891,435.3043 5603.9691,440.6743 " fill="none" id="UC22-to-UC33" style="stroke:#181818;stroke-width:1.0;stroke-dasharray:7.0,7.0;"/><polygon fill="#181818" points="5597.97,440.78,5607.0391,444.6209,5602.9692,440.6919,5606.8981,436.6221,5597.97,440.78" style="stroke:#181818;stroke-width:1.0;"/><text fill="#000000" font-family="sans-serif" font-size="13" lengthAdjust="spacing" textLength="62.1563" x="7138" y="391.5283">&#171;includes&#187;</text></g><!--link UC23 to UC33--><g id="link_UC23_UC33"><path d="M7920.14,322.08 C7887.46,331.32 7850.98,340.49 7817,346.5 C7550.05,393.75 7479.7,380.87 7209,395.5 C6587.3,429.1 5841.2497,438.8997 5604.2597,441.2797 " fill="none" id="UC23-to-UC33" style="stroke:#181818;stroke-width:1.0;stroke-dasharray:7.0,7.0;"/><polygon fill="#181818" points="5598.26,441.34,5607.2997,445.2494,5603.2597,441.2898,5607.2194,437.2498,5598.26,441.34" style="stroke:#181818;stroke-width:1.0;"/><text fill="#000000" font-family="sans-serif" font-size="13" lengthAdjust="spacing" textLength="62.1563" x="7598" y="391.5283">&#171;includes&#187;</text></g><!--link UC24 to UC33--><g id="link_UC24_UC33"><path d="M8331.46,321.2 C8299.52,330.7 8263.51,340.25 8230,346.5 C7983.96,392.39 7918.91,381.89 7669,395.5 C6859.2,439.59 5881.38,442.3237 5604.62,442.1537 " fill="none" id="UC24-to-UC33" style="stroke:#181818;stroke-width:1.0;stroke-dasharray:7.0,7.0;"/><polygon fill="#181818" points="5598.62,442.15,5607.6175,446.1555,5603.62,442.1531,5607.6225,438.1555,5598.62,442.15" style="stroke:#181818;stroke-width:1.0;"/><text fill="#000000" font-family="sans-serif" font-size="13" lengthAdjust="spacing" textLength="62.1563" x="8028" y="391.5283">&#171;includes&#187;</text></g><!--link UC25 to UC33--><g id="link_UC25_UC33"><path d="M8727.18,321.42 C8694.9,330.79 8658.69,340.21 8625,346.5 C8394.2,389.6 8333.43,382.48 8099,395.5 C7593.5,423.57 5973.7098,438.3106 5604.1998,441.3506 " fill="none" id="UC25-to-UC33" style="stroke:#181818;stroke-width:1.0;stroke-dasharray:7.0,7.0;"/><polygon fill="#181818" points="5598.2,441.4,5607.2326,445.3258,5603.1998,441.3589,5607.1668,437.3261,5598.2,441.4" style="stroke:#181818;stroke-width:1.0;"/><text fill="#000000" font-family="sans-serif" font-size="13" lengthAdjust="spacing" textLength="62.1563" x="8426" y="391.5283">&#171;includes&#187;</text></g><!--link UC26 to UC33--><g id="link_UC26_UC33"><path d="M9108.68,308.5 C9087.02,321.54 9056.33,337.96 9027,346.5 C8799.87,412.62 8733.22,382.75 8497,395.5 C7908.05,427.28 6008.0999,439.3368 5604.5199,441.5668 " fill="none" id="UC26-to-UC33" style="stroke:#181818;stroke-width:1.0;stroke-dasharray:7.0,7.0;"/><polygon fill="#181818" points="5598.52,441.6,5607.542,445.5502,5603.5199,441.5724,5607.4978,437.5503,5598.52,441.6" style="stroke:#181818;stroke-width:1.0;"/><text fill="#000000" font-family="sans-serif" font-size="13" lengthAdjust="spacing" textLength="62.1563" x="8897" y="391.5283">&#171;includes&#187;</text></g><!--link UC27 to UC33--><g id="link_UC27_UC33"><path d="M9331.31,309.24 C9308.72,321.67 9277.91,337.09 9249,346.5 C9128.45,385.74 9094.22,383.72 8968,395.5 C8622.48,427.75 6078.5199,439.7152 5604.6699,441.6752 " fill="none" id="UC27-to-UC33" style="stroke:#181818;stroke-width:1.0;stroke-dasharray:7.0,7.0;"/><polygon fill="#181818" points="5598.67,441.7,5607.6865,445.6627,5603.67,441.6793,5607.6534,437.6628,5598.67,441.7" style="stroke:#181818;stroke-width:1.0;"/><text fill="#000000" font-family="sans-serif" font-size="13" lengthAdjust="spacing" textLength="62.1563" x="9135" y="391.5283">&#171;includes&#187;</text></g><!--link UC28 to UC33--><g id="link_UC28_UC33"><path d="M9560.57,308.05 C9539.24,320.7 9509.29,336.84 9481,346.5 C9363.51,386.62 9329.59,383.79 9206,395.5 C8835.37,430.62 6097.37,440.3021 5604.66,441.7721 " fill="none" id="UC28-to-UC33" style="stroke:#181818;stroke-width:1.0;stroke-dasharray:7.0,7.0;"/><polygon fill="#181818" points="5598.66,441.79,5607.6719,445.7631,5603.66,441.7751,5607.648,437.7632,5598.66,441.79" style="stroke:#181818;stroke-width:1.0;"/><text fill="#000000" font-family="sans-serif" font-size="13" lengthAdjust="spacing" textLength="62.1563" x="9374" y="391.5283">&#171;includes&#187;</text></g><!--link UC29 to UC33--><g id="link_UC29_UC33"><path d="M9779,308.45 C9757.31,320.94 9727.26,336.74 9699,346.5 C9590.33,384.03 9559.38,383.88 9445,395.5 C9049.32,435.69 6115.46,441.2421 5604.58,441.9121 " fill="none" id="UC29-to-UC33" style="stroke:#181818;stroke-width:1.0;stroke-dasharray:7.0,7.0;"/><polygon fill="#181818" points="5598.58,441.92,5607.5852,445.9082,5603.58,441.9134,5607.5747,437.9082,5598.58,441.92" style="stroke:#181818;stroke-width:1.0;"/><text fill="#000000" font-family="sans-serif" font-size="13" lengthAdjust="spacing" textLength="62.1563" x="9596" y="391.5283">&#171;includes&#187;</text></g><!--link UC30 to UC33--><g id="link_UC30_UC33"><path d="M10000.53,307.93 C9979.18,320.51 9949.22,336.64 9921,346.5 C9812.47,384.43 9781.39,383.92 9667,395.5 C9247.79,437.94 6132.01,441.6464 5604.58,441.9664 " fill="none" id="UC30-to-UC33" style="stroke:#181818;stroke-width:1.0;stroke-dasharray:7.0,7.0;"/><polygon fill="#181818" points="5598.58,441.97,5607.58,445.97,5603.58,441.97,5607.58,437.97,5598.58,441.97" style="stroke:#181818;stroke-width:1.0;"/><text fill="#000000" font-family="sans-serif" font-size="13" lengthAdjust="spacing" textLength="62.1563" x="9818" y="391.5283">&#171;includes&#187;</text></g><!--link UC31 to UC33--><g id="link_UC31_UC33"><path d="M10215.68,306.64 C10195.67,319.43 10166.62,336.37 10139,346.5 C10032.7,385.49 10001.64,383.96 9889,395.5 C9446.33,440.85 6148.51,442.1311 5604.67,442.0311 " fill="none" id="UC31-to-UC33" style="stroke:#181818;stroke-width:1.0;stroke-dasharray:7.0,7.0;"/><polygon fill="#181818" points="5598.67,442.03,5607.6693,446.0317,5603.67,442.0309,5607.6707,438.0317,5598.67,442.03" style="stroke:#181818;stroke-width:1.0;"/><text fill="#000000" font-family="sans-serif" font-size="13" lengthAdjust="spacing" textLength="62.1563" x="10038" y="391.5283">&#171;includes&#187;</text></g><!--link UC32 to UC33--><g id="link_UC32_UC33"><path d="M10461.37,333.38 C10359.25,356.72 10227.68,383.1 10109,395.5 C9643.01,444.2 6163.1,442.6661 5604.43,442.0961 " fill="none" id="UC32-to-UC33" style="stroke:#181818;stroke-width:1.0;stroke-dasharray:7.0,7.0;"/><polygon fill="#181818" points="5598.43,442.09,5607.4259,446.0992,5603.43,442.0951,5607.4341,438.0992,5598.43,442.09" style="stroke:#181818;stroke-width:1.0;"/><text fill="#000000" font-family="sans-serif" font-size="13" lengthAdjust="spacing" textLength="62.1563" x="10241" y="391.5283">&#171;includes&#187;</text></g><!--link UC33 to UC34--><g id="link_UC33_UC34"><path d="M5523,460.89 C5523,477.99 5523,498.28 5523,515.43 " fill="none" id="UC33-to-UC34" style="stroke:#181818;stroke-width:1.0;stroke-dasharray:7.0,7.0;"/><polygon fill="#181818" points="5523,521.43,5527,512.43,5523,516.43,5519,512.43,5523,521.43" style="stroke:#181818;stroke-width:1.0;"/></g><!--link UC34 to UC35--><g id="link_UC34_UC35"><path d="M5523,557.51 C5523,578.93 5523,609.45 5523,630.42 " fill="none" id="UC34-to-UC35" style="stroke:#181818;stroke-width:1.0;stroke-dasharray:7.0,7.0;"/><polygon fill="#181818" points="5523,636.42,5527,627.42,5523,631.42,5519,627.42,5523,636.42" style="stroke:#181818;stroke-width:1.0;"/><text fill="#000000" font-family="sans-serif" font-size="13" lengthAdjust="spacing" textLength="62.1563" x="5524" y="602.5283">&#171;includes&#187;</text></g><!--link UC35 to Database--><g id="link_UC35_Database"><path d="M5523,670.6 C5523,687.8 5523,715.03 5523,733.2 " fill="none" id="UC35-Database" style="stroke:#181818;stroke-width:1.0;"/></g><!--SRC=[dPTDRzim38Rl-HL4JXkG5X4LvsCe0WJTiEqo32swks9hZJ1F5cnvNJ7ilq-EspKeBTDEJZ7padxvX8uObVgYXBjAbw0gcBvNNi7EglonyjF9fDIfL_O-rz1yi5ULFerDlnQkpfKtXOMTSxb9Z- -dy6S2uLLNEWqPS7Sz5yVYDzeLfOVgK3mOUmygpo4jQkjBeoim5ln1mqDHvbcuywi2EAY02fVM6wkjfoNam1Ablc-Q8FcBhdnVEFWDhkMWiy7z9AEBzVQsFADShCzLb9FnV6DhFhktaysG_8XrCHzsymR38yqMGx8pKmM6ANKkSD1tC82XaECgzV4KYx6rOcoJyQOYd9TZAyMPnsTLEUFLi9aLw-5LUbblnjI9SCRv83eZsaDnNiM-LX7FhHbhktlcGrFkvOnfvs1V7oyuXukp2iRi9MVQwtu4i7q4JexFudlVDxZgaFSsl-vCY3MtYPJlDY_ddVBeGof5TtdZEsgtS_Mb_haF2qdGELsui6cS3ZXKJgiV3V_hGsY_qZFu4DOHKnrcyCdOpCpWrYaRha7P37QbsflqajwgdRZFrjKUlgdSPEtoGdJj87tKLfTXgg6T0IfBNlQd6zqSixzK7bH7sN6zkhYusCARPXbw-ohOx3Sq96beGKC93IrfQ4L3QnhQa92Oqv2W8UfUKFU2kXVKlQ3k1NKlg7j1tIDrZzGzKlT8tIDrZzGzKlT8tIDrZzIzfEubTI_nQSIQ9VloSjjEzZkukZ8spUjCLzljim0vWUG42qwGS88b9rXnWZKds322i2Oo0ewau4WAZgJWI0gEfE182ewau4WAZYHo994ZYHn9v4WYHn8vaiYHH8uaSYIH8oavaf8ZAJcIyZ_9nVEnr1nkJx7aTTAp8Wc_D2V__YT__m40]--></g></svg>