<svg xmlns="http://www.w3.org/2000/svg" xmlns:xlink="http://www.w3.org/1999/xlink" contentStyleType="text/css" height="700.2px" preserveAspectRatio="none" style="width:9842px;height:700px;background:#FFFFFF;" version="1.1" viewBox="0 0 9842 700" width="9842.4px" zoomAndPan="magnify"><defs/><g><!--cluster Population Application--><g id="cluster_Population Application"><rect fill="none" height="443.7" rx="2.25" ry="2.25" style="stroke:#181818;stroke-width:0.9;" width="9830.7" x="6.3" y="174.15"/><text fill="#000000" font-family="sans-serif" font-size="12.6" font-weight="bold" lengthAdjust="spacing" textLength="137.1911" x="4853.0544" y="189.5467">Population Application</text></g><g id="elem_UC01"><ellipse cx="149.546" cy="259.5892" fill="#F1F1F1" rx="128.396" ry="27.8392" style="stroke:#181818;stroke-width:0.45;"/><text fill="#000000" font-family="sans-serif" font-size="12.6" lengthAdjust="spacing" textLength="226.2155" x="36.4382" y="263.0064">Report showing all countries in the world</text></g><g id="elem_UC02"><ellipse cx="442.9672" cy="259.6834" fill="#F1F1F1" rx="133.3672" ry="28.8334" style="stroke:#181818;stroke-width:0.45;"/><text fill="#000000" font-family="sans-serif" font-size="12.6" lengthAdjust="spacing" textLength="236.736" x="324.5992" y="263.1006">Report showing all countries in a continent</text></g><g id="elem_UC03"><ellipse cx="733.7132" cy="259.5126" fill="#F1F1F1" rx="125.7632" ry="27.3126" style="stroke:#181818;stroke-width:0.45;"/><text fill="#000000" font-family="sans-serif" font-size="12.6" lengthAdjust="spacing" textLength="220.623" x="623.4017" y="262.9298">Report showing all countries in a region</text></g><g id="elem_UC04"><ellipse cx="1054.0923" cy="259.8685" fill="#F1F1F1" rx="163.5423" ry="34.8685" style="stroke:#181818;stroke-width:0.45;"/><text fill="#000000" font-family="sans-serif" font-size="12.6" lengthAdjust="spacing" textLength="299.7791" x="904.2027" y="263.2856">Report showing top x populated countries in the world</text></g><g id="elem_UC05"><ellipse cx="1417.3766" cy="259.5353" fill="#F1F1F1" rx="168.6266" ry="35.8853" style="stroke:#181818;stroke-width:0.45;"/><text fill="#000000" font-family="sans-serif" font-size="12.6" lengthAdjust="spacing" textLength="310.2996" x="1262.2268" y="262.9525">Report showing top x populated countries in a continent</text></g><g id="elem_UC06"><ellipse cx="1778.5943" cy="259.7789" fill="#F1F1F1" rx="160.8443" ry="34.3289" style="stroke:#181818;stroke-width:0.45;"/><text fill="#000000" font-family="sans-serif" font-size="12.6" lengthAdjust="spacing" textLength="294.1866" x="1631.5009" y="263.196">Report showing top x populated countries in a region</text></g><g id="elem_UC07"><ellipse cx="2088.8881" cy="259.7376" fill="#F1F1F1" rx="117.8881" ry="25.7376" style="stroke:#181818;stroke-width:0.45;"/><text fill="#000000" font-family="sans-serif" font-size="12.6" lengthAdjust="spacing" textLength="203.7964" x="1986.9899" y="263.1548">Report showing all cities in the world</text></g><g id="elem_UC08"><ellipse cx="2361.5533" cy="259.8207" fill="#F1F1F1" rx="122.8033" ry="26.7207" style="stroke:#181818;stroke-width:0.45;"/><text fill="#000000" font-family="sans-serif" font-size="12.6" lengthAdjust="spacing" textLength="214.3169" x="2254.3948" y="263.2378">Report showing all cities in a continent</text></g><g id="elem_UC09"><ellipse cx="2631.688" cy="259.6676" fill="#F1F1F1" rx="115.288" ry="25.2176" style="stroke:#181818;stroke-width:0.45;"/><text fill="#000000" font-family="sans-serif" font-size="12.6" lengthAdjust="spacing" textLength="198.2039" x="2532.586" y="263.0848">Report showing all cities in a region</text></g><g id="elem_UC10"><ellipse cx="2896.9648" cy="259.803" fill="#F1F1F1" rx="118.2148" ry="25.803" style="stroke:#181818;stroke-width:0.45;"/><text fill="#000000" font-family="sans-serif" font-size="12.6" lengthAdjust="spacing" textLength="204.4978" x="2794.716" y="263.2202">Report showing all cities in a country</text></g><g id="elem_UC11"><ellipse cx="3163.3279" cy="259.7956" fill="#F1F1F1" rx="115.9279" ry="25.3456" style="stroke:#181818;stroke-width:0.45;"/><text fill="#000000" font-family="sans-serif" font-size="12.6" lengthAdjust="spacing" textLength="199.582" x="3063.5368" y="263.2128">Report showing all cities in a district</text></g><g id="elem_UC12"><ellipse cx="3464.2981" cy="259.5096" fill="#F1F1F1" rx="152.7481" ry="32.7096" style="stroke:#181818;stroke-width:0.45;"/><text fill="#000000" font-family="sans-serif" font-size="12.6" lengthAdjust="spacing" textLength="277.36" x="3325.6181" y="262.9268">Report showing top x populated cities in the world</text></g><g id="elem_UC13"><ellipse cx="3805.9561" cy="259.6212" fill="#F1F1F1" rx="157.8061" ry="33.7212" style="stroke:#181818;stroke-width:0.45;"/><text fill="#000000" font-family="sans-serif" font-size="12.6" lengthAdjust="spacing" textLength="287.8805" x="3662.0159" y="263.0384">Report showing top x populated cities in a continent</text></g><g id="elem_UC14"><ellipse cx="4145.6152" cy="259.873" fill="#F1F1F1" rx="150.0652" ry="32.173" style="stroke:#181818;stroke-width:0.45;"/><text fill="#000000" font-family="sans-serif" font-size="12.6" lengthAdjust="spacing" textLength="271.7675" x="4009.7314" y="263.2902">Report showing top x populated cities in a region</text></g><g id="elem_UC15"><ellipse cx="4480.2849" cy="259.577" fill="#F1F1F1" rx="153.0849" ry="32.777" style="stroke:#181818;stroke-width:0.45;"/><text fill="#000000" font-family="sans-serif" font-size="12.6" lengthAdjust="spacing" textLength="278.0613" x="4341.2542" y="262.9942">Report showing top x populated cities in a country</text></g><g id="elem_UC16"><ellipse cx="4815.8759" cy="259.5552" fill="#F1F1F1" rx="150.7259" ry="32.3052" style="stroke:#181818;stroke-width:0.45;"/><text fill="#000000" font-family="sans-serif" font-size="12.6" lengthAdjust="spacing" textLength="273.1456" x="4679.3031" y="262.9724">Report showing top x populated cities in a district</text></g><g id="elem_UC17"><ellipse cx="5135.279" cy="259.4458" fill="#F1F1F1" rx="136.679" ry="29.4958" style="stroke:#181818;stroke-width:0.45;"/><text fill="#000000" font-family="sans-serif" font-size="12.6" lengthAdjust="spacing" textLength="243.7189" x="5013.4195" y="262.863">Report showing all capital cities in the world</text></g><g id="elem_UC18"><ellipse cx="5445.8352" cy="259.547" fill="#F1F1F1" rx="141.6852" ry="30.497" style="stroke:#181818;stroke-width:0.45;"/><text fill="#000000" font-family="sans-serif" font-size="12.6" lengthAdjust="spacing" textLength="254.2395" x="5318.7154" y="262.9642">Report showing all capital cities in a continent</text></g><g id="elem_UC19"><ellipse cx="5753.6259" cy="259.8152" fill="#F1F1F1" rx="134.0259" ry="28.9652" style="stroke:#181818;stroke-width:0.45;"/><text fill="#000000" font-family="sans-serif" font-size="12.6" lengthAdjust="spacing" textLength="238.1265" x="5634.5627" y="263.2324">Report showing all capital cities in a region</text></g><g id="elem_UC20"><ellipse cx="6091.3072" cy="259.7614" fill="#F1F1F1" rx="172.0072" ry="36.5614" style="stroke:#181818;stroke-width:0.45;"/><text fill="#000000" font-family="sans-serif" font-size="12.6" lengthAdjust="spacing" textLength="317.2825" x="5932.666" y="263.1786">Report showing top x populated capital cities in the world</text></g><g id="elem_UC21"><ellipse cx="6471.7087" cy="259.4317" fill="#F1F1F1" rx="177.1087" ry="37.5817" style="stroke:#181818;stroke-width:0.45;"/><text fill="#000000" font-family="sans-serif" font-size="12.6" lengthAdjust="spacing" textLength="327.803" x="6307.8072" y="262.8489">Report showing top x populated capital cities in a continent</text></g><g id="elem_UC22"><ellipse cx="6849.9994" cy="259.6699" fill="#F1F1F1" rx="169.2994" ry="36.0199" style="stroke:#181818;stroke-width:0.45;"/><text fill="#000000" font-family="sans-serif" font-size="12.6" lengthAdjust="spacing" textLength="311.69" x="6694.1544" y="263.0871">Report showing top x populated capital cities in a region</text></g><g id="elem_UC23"><ellipse cx="7220.5843" cy="259.8069" fill="#F1F1F1" rx="169.9843" ry="36.1569" style="stroke:#181818;stroke-width:0.45;"/><text fill="#000000" font-family="sans-serif" font-size="12.6" lengthAdjust="spacing" textLength="313.1051" x="7064.0317" y="263.224">Report showing the population distribution in a continent</text></g><g id="elem_UC24"><ellipse cx="7584.4973" cy="259.5995" fill="#F1F1F1" rx="162.1973" ry="34.5995" style="stroke:#181818;stroke-width:0.45;"/><text fill="#000000" font-family="sans-serif" font-size="12.6" lengthAdjust="spacing" textLength="296.9921" x="7436.0013" y="263.0166">Report showing the population distribution in a region</text></g><g id="elem_UC25"><ellipse cx="7943.4858" cy="259.7572" fill="#F1F1F1" rx="165.2358" ry="35.2072" style="stroke:#181818;stroke-width:0.45;"/><text fill="#000000" font-family="sans-serif" font-size="12.6" lengthAdjust="spacing" textLength="303.2859" x="7791.8428" y="263.1744">Report showing the population distribution in a country</text></g><g id="elem_UC26"><ellipse cx="8224.0934" cy="259.7187" fill="#F1F1F1" rx="84.0434" ry="18.9687" style="stroke:#181818;stroke-width:0.45;"/><text fill="#000000" font-family="sans-serif" font-size="12.6" lengthAdjust="spacing" textLength="128.1841" x="8157.3014" y="264.042">Population of the world</text></g><g id="elem_UC27"><ellipse cx="8428.2955" cy="259.6991" fill="#F1F1F1" rx="88.4455" ry="19.8491" style="stroke:#181818;stroke-width:0.45;"/><text fill="#000000" font-family="sans-serif" font-size="12.6" lengthAdjust="spacing" textLength="138.7046" x="8357.4768" y="263.6396">Population of a continent</text></g><g id="elem_UC28"><ellipse cx="8630.8635" cy="259.7127" fill="#F1F1F1" rx="81.7635" ry="18.5127" style="stroke:#181818;stroke-width:0.45;"/><text fill="#000000" font-family="sans-serif" font-size="12.6" lengthAdjust="spacing" textLength="122.5916" x="8566.8677" y="264.036">Population of a region</text></g><g id="elem_UC29"><ellipse cx="8829.1816" cy="259.7763" fill="#F1F1F1" rx="84.3316" ry="19.0263" style="stroke:#181818;stroke-width:0.45;"/><text fill="#000000" font-family="sans-serif" font-size="12.6" lengthAdjust="spacing" textLength="128.8854" x="8762.0389" y="264.0997">Population of a country</text></g><g id="elem_UC30"><ellipse cx="9026.9723" cy="259.8245" fill="#F1F1F1" rx="82.3223" ry="18.6245" style="stroke:#181818;stroke-width:0.45;"/><text fill="#000000" font-family="sans-serif" font-size="12.6" lengthAdjust="spacing" textLength="123.9697" x="8962.2874" y="264.1478">Population of a district</text></g><g id="elem_UC31"><ellipse cx="9216.6918" cy="259.7884" fill="#F1F1F1" rx="75.3918" ry="17.2384" style="stroke:#181818;stroke-width:0.45;"/><text fill="#000000" font-family="sans-serif" font-size="12.6" lengthAdjust="spacing" textLength="106.4663" x="9160.7586" y="264.1117">Population of a city</text></g><g id="elem_UC32"><ellipse cx="9573.4708" cy="259.5042" fill="#F1F1F1" rx="249.4708" ry="52.0542" style="stroke:#181818;stroke-width:0.45;"/><text fill="#000000" font-family="sans-serif" font-size="12.6" lengthAdjust="spacing" textLength="475.5762" x="9335.6827" y="262.9214">Number of people in the world speaking Chinese, English, Hindi, Spanish and Arabic.</text></g><g id="elem_UC33"><ellipse cx="4970.9006" cy="398.7401" fill="#F1F1F1" rx="68.1506" ry="15.7901" style="stroke:#181818;stroke-width:0.45;"/><text fill="#000000" font-family="sans-serif" font-size="12.6" lengthAdjust="spacing" textLength="86.8649" x="4924.7682" y="403.0635">Input Validation</text></g><g id="elem_UC34"><ellipse cx="4970.709" cy="485.6418" fill="#F1F1F1" rx="70.659" ry="16.2918" style="stroke:#181818;stroke-width:0.45;"/><text fill="#000000" font-family="sans-serif" font-size="12.6" lengthAdjust="spacing" textLength="93.854" x="4921.082" y="489.9651">Generate Report</text></g><g id="elem_UC35"><ellipse cx="4970.7217" cy="588.1543" fill="#F1F1F1" rx="65.7217" ry="15.3043" style="stroke:#181818;stroke-width:0.45;"/><text fill="#000000" font-family="sans-serif" font-size="12.6" lengthAdjust="spacing" textLength="79.8328" x="4928.1053" y="592.4777">Data Retrieval</text></g><!--entity User--><g id="elem_User"><ellipse cx="4911.1014" cy="12.6" fill="#F1F1F1" rx="7.2" ry="7.2" style="stroke:#181818;stroke-width:0.45;"/><path d="M4911.1014,19.8 L4911.1014,44.1 M4899.4014,27 L4922.8014,27 M4911.1014,44.1 L4899.4014,57.6 M4911.1014,44.1 L4922.8014,57.6 " fill="none" style="stroke:#181818;stroke-width:0.45;"/><text fill="#000000" font-family="sans-serif" font-size="12.6" lengthAdjust="spacing" textLength="26.6027" x="4897.8" y="72.5467">User</text></g><!--entity Database--><g id="elem_Database"><rect fill="#F1F1F1" height="34.759" rx="2.25" ry="2.25" style="stroke:#181818;stroke-width:0.45;" width="71.9376" x="4934.7" y="660.15"/><text fill="#000000" font-family="sans-serif" font-size="12.6" lengthAdjust="spacing" textLength="53.9376" x="4943.7" y="682.7467">Database</text></g><!--link User to UC01--><g id="link_User_UC01"><path d="M4897.593,41.517 C4681.008,43.353 1960.326,67.077 1161,103.05 C774.747,120.438 660.348,45.135 293.4,166.95 C250.767,181.098 212.4052,207.3153 184.7302,229.0863 " fill="none" id="User-to-UC01" style="stroke:#181818;stroke-width:0.9;"/><polygon fill="#181818" points="180.486,232.425,189.0781,230.2463,184.0228,229.6427,184.6264,224.5875,180.486,232.425" style="stroke:#181818;stroke-width:0.9;"/></g><!--link User to UC02--><g id="link_User_UC02"><path d="M4897.683,41.355 C4647.78,40.662 1035.873,32.976 592.2,166.95 C548.343,180.198 508.7037,206.312 479.9487,228.299 " fill="none" id="User-to-UC02" style="stroke:#181818;stroke-width:0.9;"/><polygon fill="#181818" points="475.659,231.579,484.2802,229.5187,479.2337,228.8456,479.9068,223.7992,475.659,231.579" style="stroke:#181818;stroke-width:0.9;"/></g><!--link User to UC03--><g id="link_User_UC03"><path d="M4897.35,41.634 C4749.678,44.172 3458.979,66.861 2414.7,103.05 C1849.68,122.625 1708.902,139.59 1143.9,159.75 C1114.011,160.821 903.366,158.067 874.8,166.95 C831.924,180.279 793.8314,207.1977 766.8674,229.3647 " fill="none" id="User-to-UC03" style="stroke:#181818;stroke-width:0.9;"/><polygon fill="#181818" points="762.696,232.794,771.2392,230.431,766.1721,229.9363,766.6669,224.8692,762.696,232.794" style="stroke:#181818;stroke-width:0.9;"/></g><!--link User to UC04--><g id="link_User_UC04"><path d="M4897.449,41.517 C4750.902,42.795 3470.013,55.152 2434.5,103.05 C2061.648,120.294 1969.497,143.451 1596.6,159.75 C1556.235,161.514 1272.186,157.077 1233,166.95 C1185.732,178.857 1141.399,202.2186 1106.65,223.5846 " fill="none" id="User-to-UC04" style="stroke:#181818;stroke-width:0.9;"/><polygon fill="#181818" points="1102.05,226.413,1110.8356,225.2371,1105.8833,224.056,1107.0644,219.1037,1102.05,226.413" style="stroke:#181818;stroke-width:0.9;"/></g><!--link User to UC05--><g id="link_User_UC05"><path d="M4897.539,41.373 C4751.865,41.184 3478.698,41.328 2450.7,103.05 C2185.182,118.989 2120.391,143.352 1854.9,159.75 C1826.838,161.487 1629.27,160.128 1602,166.95 C1554.624,178.803 1509.9649,201.3688 1474.2529,222.4198 " fill="none" id="User-to-UC05" style="stroke:#181818;stroke-width:0.9;"/><polygon fill="#181818" points="1469.601,225.162,1478.407,224.1501,1473.4776,222.8769,1474.7508,217.9475,1469.601,225.162" style="stroke:#181818;stroke-width:0.9;"/></g><!--link User to UC06--><g id="link_User_UC06"><path d="M4897.8,41.553 C4726.818,43.488 2980.584,64.116 2465.1,103.05 C2264.49,118.206 2215.683,135.225 2016,159.75 C1989.207,163.044 1981.494,159.021 1955.7,166.95 C1910.142,180.954 1867.0166,203.6307 1832.5556,224.1867 " fill="none" id="User-to-UC06" style="stroke:#181818;stroke-width:0.9;"/><polygon fill="#181818" points="1827.918,226.953,1836.7186,225.8952,1831.7827,224.6477,1833.0302,219.7118,1827.918,226.953" style="stroke:#181818;stroke-width:0.9;"/></g><!--link User to UC07--><g id="link_User_UC07"><path d="M4897.575,41.661 C4774.617,44.073 3849.651,63.036 3100.5,103.05 C2710.026,123.903 2592.099,37.836 2223,166.95 C2181.321,181.53 2144.578,209.0631 2119.126,231.0051 " fill="none" id="User-to-UC07" style="stroke:#181818;stroke-width:0.9;"/><polygon fill="#181818" points="2115.036,234.531,2123.5216,231.9687,2118.4443,231.5927,2118.8203,226.5155,2115.036,234.531" style="stroke:#181818;stroke-width:0.9;"/></g><!--link User to UC08--><g id="link_User_UC08"><path d="M4897.791,41.661 C4715.388,45.261 2743.659,85.95 2501.1,166.95 C2458.611,181.134 2420.7658,208.2002 2394.1258,230.1602 " fill="none" id="User-to-UC08" style="stroke:#181818;stroke-width:0.9;"/><polygon fill="#181818" points="2389.959,233.595,2398.4991,231.2207,2393.4313,230.7327,2393.9193,225.6649,2389.959,233.595" style="stroke:#181818;stroke-width:0.9;"/></g><!--link User to UC09--><g id="link_User_UC09"><path d="M4897.458,41.805 C4775.4,45.405 3869.811,73.404 3137.4,130.95 C2970.747,144.045 2919.87,109.188 2763,166.95 C2722.005,182.052 2685.9283,209.5993 2661.0253,231.3973 " fill="none" id="User-to-UC09" style="stroke:#181818;stroke-width:0.9;"/><polygon fill="#181818" points="2656.962,234.954,2665.428,232.3279,2660.3481,231.9901,2660.6858,226.9102,2656.962,234.954" style="stroke:#181818;stroke-width:0.9;"/></g><!--link User to UC10--><g id="link_User_UC10"><path d="M4897.521,41.724 C4795.119,44.235 4141.98,61.389 3612.6,103.05 C3353.841,123.417 3275.613,77.121 3032.1,166.95 C2990.754,182.205 2953.954,209.3194 2928.196,230.9914 " fill="none" id="User-to-UC10" style="stroke:#181818;stroke-width:0.9;"/><polygon fill="#181818" points="2924.064,234.468,2932.5797,232.0078,2927.5073,231.5709,2927.9443,226.4985,2924.064,234.468" style="stroke:#181818;stroke-width:0.9;"/></g><!--link User to UC11--><g id="link_User_UC11"><path d="M4897.746,41.454 C4760.1,42.174 3613.797,51.57 3295.8,166.95 C3254.544,181.917 3218.1973,209.5107 3193.1143,231.3537 " fill="none" id="User-to-UC11" style="stroke:#181818;stroke-width:0.9;"/><polygon fill="#181818" points="3189.042,234.9,3197.5147,232.2954,3192.4356,231.9448,3192.7863,226.8657,3189.042,234.9" style="stroke:#181818;stroke-width:0.9;"/></g><!--link User to UC12--><g id="link_User_UC12"><path d="M4897.746,41.967 C4777.146,47.124 3886.326,87.561 3632.4,166.95 C3587.769,180.9 3545.9896,204.2849 3513.2566,225.1649 " fill="none" id="User-to-UC12" style="stroke:#181818;stroke-width:0.9;"/><polygon fill="#181818" points="3508.704,228.069,3517.469,226.748,3512.4979,225.6489,3513.5969,220.6778,3508.704,228.069" style="stroke:#181818;stroke-width:0.9;"/></g><!--link User to UC13--><g id="link_User_UC13"><path d="M4897.782,41.454 C4812.426,42.174 4340.322,51.435 3979.8,166.95 C3934.971,181.314 3892.6156,204.0622 3858.8386,224.5732 " fill="none" id="User-to-UC13" style="stroke:#181818;stroke-width:0.9;"/><polygon fill="#181818" points="3854.223,227.376,3863.015,226.2488,3858.0694,225.0403,3859.2779,220.0947,3854.223,227.376" style="stroke:#181818;stroke-width:0.9;"/></g><!--link User to UC14--><g id="link_User_UC14"><path d="M4897.377,42.768 C4830.543,49.671 4536.693,83.574 4311.9,166.95 C4268.727,182.961 4227.7575,205.935 4195.2225,226.122 " fill="none" id="User-to-UC14" style="stroke:#181818;stroke-width:0.9;"/><polygon fill="#181818" points="4190.634,228.969,4199.4148,227.7575,4194.4578,226.5965,4195.6187,221.6394,4190.634,228.969" style="stroke:#181818;stroke-width:0.9;"/></g><!--link User to UC15--><g id="link_User_UC15"><path d="M4897.548,47.7 C4858.425,65.673 4743.261,119.025 4649.4,166.95 C4610.412,186.858 4571.7408,207.818 4538.6658,226.088 " fill="none" id="User-to-UC15" style="stroke:#181818;stroke-width:0.9;"/><polygon fill="#181818" points="4533.939,228.699,4542.7699,227.9337,4537.878,226.5232,4539.2885,221.6313,4533.939,228.699" style="stroke:#181818;stroke-width:0.9;"/></g><!--link User to UC16--><g id="link_User_UC16"><path d="M4897.737,72.306 C4879.674,113.445 4850.0925,180.8604 4831.9035,222.2964 " fill="none" id="User-to-UC16" style="stroke:#181818;stroke-width:0.9;"/><polygon fill="#181818" points="4829.733,227.241,4836.2851,221.2711,4831.5418,223.1205,4829.6924,218.3771,4829.733,227.241" style="stroke:#181818;stroke-width:0.9;"/></g><!--link User to UC17--><g id="link_User_UC17"><path d="M4924.98,54.666 C4960.71,89.325 5053.5655,179.3816 5102.4355,226.7756 " fill="none" id="User-to-UC17" style="stroke:#181818;stroke-width:0.9;"/><polygon fill="#181818" points="5106.312,230.535,5103.0036,222.3116,5103.0816,227.4022,5097.991,227.4802,5106.312,230.535" style="stroke:#181818;stroke-width:0.9;"/></g><!--link User to UC18--><g id="link_User_UC18"><path d="M4925.043,44.874 C4975.065,57.726 5151.645,105.129 5288.4,166.95 C5328.63,185.139 5367.2203,207.8769 5398.1623,227.4339 " fill="none" id="User-to-UC18" style="stroke:#181818;stroke-width:0.9;"/><polygon fill="#181818" points="5402.727,230.319,5397.8034,222.9482,5398.9231,227.9147,5393.9566,229.0344,5402.727,230.319" style="stroke:#181818;stroke-width:0.9;"/></g><!--link User to UC19--><g id="link_User_UC19"><path d="M4924.989,42.021 C4997.502,45.684 5343.201,67.86 5603.4,166.95 C5645.403,182.943 5684.3306,207.7102 5713.6076,228.5632 " fill="none" id="User-to-UC19" style="stroke:#181818;stroke-width:0.9;"/><polygon fill="#181818" points="5718.006,231.696,5713.497,224.0646,5714.3407,229.0853,5709.3199,229.929,5718.006,231.696" style="stroke:#181818;stroke-width:0.9;"/></g><!--link User to UC20--><g id="link_User_UC20"><path d="M4925.079,41.436 C5014.188,42.021 5517.252,50.535 5904,166.95 C5950.098,180.828 5994.1024,202.4446 6030.2824,222.5236 " fill="none" id="User-to-UC20" style="stroke:#181818;stroke-width:0.9;"/><polygon fill="#181818" points="6035.004,225.144,6029.6685,218.0657,6031.0693,222.9604,6026.1747,224.3612,6035.004,225.144" style="stroke:#181818;stroke-width:0.9;"/></g><!--link User to UC21--><g id="link_User_UC21"><path d="M4924.962,41.967 C5050.503,47.304 6004.863,90.045 6279.3,166.95 C6326.028,180.045 6370.6174,201.2069 6407.6524,221.2589 " fill="none" id="User-to-UC21" style="stroke:#181818;stroke-width:0.9;"/><polygon fill="#181818" points="6412.401,223.83,6406.9921,216.8076,6408.4438,221.6874,6403.564,223.1391,6412.401,223.83" style="stroke:#181818;stroke-width:0.9;"/></g><!--link User to UC22--><g id="link_User_UC22"><path d="M4925.007,41.625 C5069.304,44.127 6310.953,68.364 6665.4,166.95 C6711.93,179.892 6756.0132,202.0178 6791.7162,222.5918 " fill="none" id="User-to-UC22" style="stroke:#181818;stroke-width:0.9;"/><polygon fill="#181818" points="6796.395,225.288,6791.1743,218.1246,6792.496,223.0412,6787.5794,224.3629,6796.395,225.288" style="stroke:#181818;stroke-width:0.9;"/></g><!--link User to UC23--><g id="link_User_UC23"><path d="M4925.043,41.409 C5085.459,41.652 6603.966,47.151 7035.3,166.95 C7082.019,179.928 7126.3384,202.0658 7162.2214,222.6218 " fill="none" id="User-to-UC23" style="stroke:#181818;stroke-width:0.9;"/><polygon fill="#181818" points="7166.907,225.306,7161.668,218.1559,7163.0023,223.0692,7158.0891,224.4034,7166.907,225.306" style="stroke:#181818;stroke-width:0.9;"/></g><!--link User to UC24--><g id="link_User_UC24"><path d="M4925.169,41.643 C5045.67,43.785 5927.697,60.516 6642,103.05 C6982.578,123.327 7079.157,72.486 7407,166.95 C7452.801,180.144 7495.924,202.8577 7530.322,223.6387 " fill="none" id="User-to-UC24" style="stroke:#181818;stroke-width:0.9;"/><polygon fill="#181818" points="7534.944,226.431,7529.8725,219.1612,7531.0923,224.1041,7526.1494,225.3239,7534.944,226.431" style="stroke:#181818;stroke-width:0.9;"/></g><!--link User to UC25--><g id="link_User_UC25"><path d="M4925.025,41.679 C5067.765,44.604 6295.311,70.938 7287.3,130.95 C7498.719,143.739 7558.515,109.926 7762.5,166.95 C7808.967,179.937 7852.8675,202.564 7887.9495,223.354 " fill="none" id="User-to-UC25" style="stroke:#181818;stroke-width:0.9;"/><polygon fill="#181818" points="7892.595,226.107,7887.462,218.8805,7888.7237,223.8128,7883.7914,225.0745,7892.595,226.107" style="stroke:#181818;stroke-width:0.9;"/></g><!--link User to UC26--><g id="link_User_UC26"><path d="M4924.818,41.355 C5138.1,40.662 7807.842,34.722 8124.3,166.95 C8161.686,182.565 8190.6043,214.378 8207.7493,236.374 " fill="none" id="User-to-UC26" style="stroke:#181818;stroke-width:0.9;"/><polygon fill="#181818" points="8211.069,240.633,8208.9287,232.0313,8208.3025,237.0838,8203.25,236.4576,8211.069,240.633" style="stroke:#181818;stroke-width:0.9;"/></g><!--link User to UC27--><g id="link_User_UC27"><path d="M4925.034,41.544 C5110.65,43.551 7125.255,65.997 7719.3,103.05 C7989.075,119.88 8076.672,58.131 8324.1,166.95 C8361.441,183.375 8391.4756,214.0023 8409.9616,235.7283 " fill="none" id="User-to-UC27" style="stroke:#181818;stroke-width:0.9;"/><polygon fill="#181818" points="8413.461,239.841,8410.9537,231.339,8410.5449,236.4137,8405.4701,236.0049,8413.461,239.841" style="stroke:#181818;stroke-width:0.9;"/></g><!--link User to UC28--><g id="link_User_UC28"><path d="M4925.025,41.328 C5087.61,40.536 6662.7,34.83 7933.5,103.05 C8201.025,117.414 8290.539,52.767 8532.9,166.95 C8569.197,184.05 8597.6581,215.3697 8614.6231,236.8707 " fill="none" id="User-to-UC28" style="stroke:#181818;stroke-width:0.9;"/><polygon fill="#181818" points="8617.968,241.11,8615.7768,232.5211,8615.1806,237.5773,8610.1244,236.981,8617.968,241.11" style="stroke:#181818;stroke-width:0.9;"/></g><!--link User to UC29--><g id="link_User_UC29"><path d="M4924.944,41.526 C5125.032,43.38 7468.083,65.745 8157.6,103.05 C8412.813,116.856 8497.926,57.951 8729.1,166.95 C8765.532,184.131 8794.4634,215.1213 8811.9144,236.5953 " fill="none" id="User-to-UC29" style="stroke:#181818;stroke-width:0.9;"/><polygon fill="#181818" points="8815.32,240.786,8813.0054,232.2296,8812.482,237.2938,8807.4178,236.7704,8815.32,240.786" style="stroke:#181818;stroke-width:0.9;"/></g><!--link User to UC30--><g id="link_User_UC30"><path d="M4924.854,41.499 C5131.026,43.047 7630.047,62.559 8364.6,103.05 C8616.618,116.937 8700.993,58.482 8928.9,166.95 C8965.125,184.194 8993.6046,215.4754 9010.5966,236.9224 " fill="none" id="User-to-UC30" style="stroke:#181818;stroke-width:0.9;"/><polygon fill="#181818" points="9013.95,241.155,9011.7416,232.5705,9011.1555,237.6278,9006.0982,237.0417,9013.95,241.155" style="stroke:#181818;stroke-width:0.9;"/></g><!--link User to UC31--><g id="link_User_UC31"><path d="M4924.998,41.481 C5138.577,42.813 7789.41,60.093 8568,103.05 C8816.841,116.784 8901.972,55.926 9125.1,166.95 C9160.614,184.617 9187.5249,217.0018 9202.8519,238.2598 " fill="none" id="User-to-UC31" style="stroke:#181818;stroke-width:0.9;"/><polygon fill="#181818" points="9206.01,242.64,9204.1929,233.9643,9203.3782,238.9898,9198.3527,238.1751,9206.01,242.64" style="stroke:#181818;stroke-width:0.9;"/></g><!--link User to UC32--><g id="link_User_UC32"><path d="M4925.088,41.463 C5145.741,42.552 7951.527,57.159 8775,103.05 C9013.527,116.343 9076.698,109.98 9308.7,166.95 C9358.281,179.127 9406.6271,194.9209 9452.4011,211.4809 " fill="none" id="User-to-UC32" style="stroke:#181818;stroke-width:0.9;"/><polygon fill="#181818" points="9457.479,213.318,9451.0869,207.1771,9453.2474,211.7871,9448.6374,213.9477,9457.479,213.318" style="stroke:#181818;stroke-width:0.9;"/></g><!--link UC01 to UC33--><g id="link_UC01_UC33"><path d="M207.351,284.589 C233.271,294.453 264.447,305.109 293.4,311.85 C459.684,350.55 504.603,345.303 675,355.95 C1113.714,383.364 4381.992,395.7562 4897.152,397.5472 " fill="none" id="UC01-to-UC33" style="stroke:#181818;stroke-width:0.9;stroke-dasharray:7.0,7.0;"/><polygon fill="#181818" points="4902.552,397.566,4894.4646,393.9379,4898.052,397.5504,4894.4395,401.1378,4902.552,397.566" style="stroke:#181818;stroke-width:0.9;"/><text fill="#000000" font-family="sans-serif" font-size="11.7" lengthAdjust="spacing" textLength="55.9406" x="675.9" y="352.3755">&#171;includes&#187;</text></g><!--link UC02 to UC33--><g id="link_UC02_UC33"><path d="M504.819,285.156 C531.36,294.813 562.923,305.163 592.2,311.85 C754.389,348.876 797.886,345.267 963.9,355.95 C1371.87,382.203 4403.43,395.5102 4897.467,397.5082 " fill="none" id="UC02-to-UC33" style="stroke:#181818;stroke-width:0.9;stroke-dasharray:7.0,7.0;"/><polygon fill="#181818" points="4902.867,397.53,4894.7816,393.8973,4898.367,397.5118,4894.7525,401.0972,4902.867,397.53" style="stroke:#181818;stroke-width:0.9;"/><text fill="#000000" font-family="sans-serif" font-size="11.7" lengthAdjust="spacing" textLength="55.9406" x="964.8" y="352.3755">&#171;includes&#187;</text></g><!--link UC03 to UC33--><g id="link_UC03_UC33"><path d="M788.895,284.382 C814.572,294.453 845.766,305.343 874.8,311.85 C1080.99,358.083 1137.177,344.916 1348.2,355.95 C2078.163,394.101 4463.523,397.4723 4897.44,397.7693 " fill="none" id="UC03-to-UC33" style="stroke:#181818;stroke-width:0.9;stroke-dasharray:7.0,7.0;"/><polygon fill="#181818" points="4902.84,397.773,4894.74,394.173,4898.34,397.773,4894.74,401.373,4902.84,397.773" style="stroke:#181818;stroke-width:0.9;"/><text fill="#000000" font-family="sans-serif" font-size="11.7" lengthAdjust="spacing" textLength="55.9406" x="1349.1" y="352.3755">&#171;includes&#187;</text></g><!--link UC04 to UC33--><g id="link_UC04_UC33"><path d="M1141.02,289.035 C1170.009,297.567 1202.643,306.153 1233,311.85 C1442.25,351.135 1497.393,344.772 1710,355.95 C2363.346,390.294 4489.38,396.7257 4897.431,397.6527 " fill="none" id="UC04-to-UC33" style="stroke:#181818;stroke-width:0.9;stroke-dasharray:7.0,7.0;"/><polygon fill="#181818" points="4902.831,397.665,4894.7392,394.0466,4898.331,397.6548,4894.7228,401.2466,4902.831,397.665" style="stroke:#181818;stroke-width:0.9;"/><text fill="#000000" font-family="sans-serif" font-size="11.7" lengthAdjust="spacing" textLength="55.9406" x="1710.9" y="352.3755">&#171;includes&#187;</text></g><!--link UC05 to UC33--><g id="link_UC05_UC33"><path d="M1510.398,289.71 C1539.486,297.936 1571.859,306.18 1602,311.85 C1794.024,347.949 1844.334,344.745 2039.4,355.95 C2622.942,389.466 4513.644,396.5155 4897.26,397.6135 " fill="none" id="UC05-to-UC33" style="stroke:#181818;stroke-width:0.9;stroke-dasharray:7.0,7.0;"/><polygon fill="#181818" points="4902.66,397.629,4894.5703,394.0058,4898.16,397.6161,4894.5497,401.2058,4902.66,397.629" style="stroke:#181818;stroke-width:0.9;"/><text fill="#000000" font-family="sans-serif" font-size="11.7" lengthAdjust="spacing" textLength="55.9406" x="2040.3" y="352.3755">&#171;includes&#187;</text></g><!--link UC06 to UC33--><g id="link_UC06_UC33"><path d="M1865.223,288.495 C1893.807,296.937 1925.901,305.613 1955.7,311.85 C2102.211,342.54 2140.317,344.961 2289.6,355.95 C2819.88,394.974 4533.237,397.672 4897.197,397.807 " fill="none" id="UC06-to-UC33" style="stroke:#181818;stroke-width:0.9;stroke-dasharray:7.0,7.0;"/><polygon fill="#181818" points="4902.597,397.809,4894.497,394.209,4898.097,397.809,4894.497,401.409,4902.597,397.809" style="stroke:#181818;stroke-width:0.9;"/><text fill="#000000" font-family="sans-serif" font-size="11.7" lengthAdjust="spacing" textLength="55.9406" x="2290.5" y="352.3755">&#171;includes&#187;</text></g><!--link UC07 to UC33--><g id="link_UC07_UC33"><path d="M2138.922,282.969 C2163.744,293.247 2194.47,304.704 2223,311.85 C2374.74,349.866 2416.167,344.772 2572.2,355.95 C3043.296,389.709 4556.979,396.4773 4897.242,397.5933 " fill="none" id="UC07-to-UC33" style="stroke:#181818;stroke-width:0.9;stroke-dasharray:7.0,7.0;"/><polygon fill="#181818" points="4902.642,397.611,4894.5539,393.9845,4898.142,397.5962,4894.5302,401.1844,4902.642,397.611" style="stroke:#181818;stroke-width:0.9;"/><text fill="#000000" font-family="sans-serif" font-size="11.7" lengthAdjust="spacing" textLength="55.9406" x="2573.1" y="352.3755">&#171;includes&#187;</text></g><!--link UC08 to UC33--><g id="link_UC08_UC33"><path d="M2415.726,283.608 C2441.214,293.652 2472.291,304.731 2501.1,311.85 C2645.262,347.49 2684.232,344.682 2832.3,355.95 C3248.946,387.666 4580.3881,395.9378 4897.4131,397.4768 " fill="none" id="UC08-to-UC33" style="stroke:#181818;stroke-width:0.9;stroke-dasharray:7.0,7.0;"/><polygon fill="#181818" points="4902.813,397.503,4894.7306,393.8637,4898.3131,397.4812,4894.6956,401.0636,4902.813,397.503" style="stroke:#181818;stroke-width:0.9;"/><text fill="#000000" font-family="sans-serif" font-size="11.7" lengthAdjust="spacing" textLength="55.9406" x="2833.2" y="352.3755">&#171;includes&#187;</text></g><!--link UC09 to UC33--><g id="link_UC09_UC33"><path d="M2679.651,282.564 C2704.131,292.941 2734.65,304.596 2763,311.85 C2911.095,349.731 2951.676,344.421 3104.1,355.95 C3464.19,383.184 4606.0652,394.6661 4897.4762,397.1951 " fill="none" id="UC09-to-UC33" style="stroke:#181818;stroke-width:0.9;stroke-dasharray:7.0,7.0;"/><polygon fill="#181818" points="4902.876,397.242,4894.8075,393.5718,4898.3762,397.2029,4894.7451,400.7716,4902.876,397.242" style="stroke:#181818;stroke-width:0.9;"/><text fill="#000000" font-family="sans-serif" font-size="11.7" lengthAdjust="spacing" textLength="55.9406" x="3105" y="352.3755">&#171;includes&#187;</text></g><!--link UC10 to UC33--><g id="link_UC10_UC33"><path d="M2947.473,282.951 C2972.466,293.229 3003.399,304.686 3032.1,311.85 C3183.489,349.632 3224.817,344.079 3380.4,355.95 C3683.331,379.053 4634.6765,393.2809 4897.7735,396.8449 " fill="none" id="UC10-to-UC33" style="stroke:#181818;stroke-width:0.9;stroke-dasharray:7.0,7.0;"/><polygon fill="#181818" points="4903.173,396.918,4895.1225,393.2086,4898.6734,396.857,4895.025,400.408,4903.173,396.918" style="stroke:#181818;stroke-width:0.9;"/><text fill="#000000" font-family="sans-serif" font-size="11.7" lengthAdjust="spacing" textLength="55.9406" x="3381.3" y="352.3755">&#171;includes&#187;</text></g><!--link UC11 to UC33--><g id="link_UC11_UC33"><path d="M3211.164,282.771 C3235.887,293.328 3266.892,305.091 3295.8,311.85 C3509.712,361.854 3568.851,342.261 3788.1,355.95 C4212.027,382.419 4717.1619,393.3379 4897.8999,396.5869 " fill="none" id="UC11-to-UC33" style="stroke:#181818;stroke-width:0.9;stroke-dasharray:7.0,7.0;"/><polygon fill="#181818" points="4903.299,396.684,4895.265,392.939,4898.7997,396.6031,4895.1356,400.1378,4903.299,396.684" style="stroke:#181818;stroke-width:0.9;"/><text fill="#000000" font-family="sans-serif" font-size="11.7" lengthAdjust="spacing" textLength="55.9406" x="3789" y="352.3755">&#171;includes&#187;</text></g><!--link UC12 to UC33--><g id="link_UC12_UC33"><path d="M3542.481,287.937 C3570.534,296.802 3602.601,305.883 3632.4,311.85 C3879.954,361.404 4663.1635,388.5182 4898.4235,395.7002 " fill="none" id="UC12-to-UC33" style="stroke:#181818;stroke-width:0.9;stroke-dasharray:7.0,7.0;"/><polygon fill="#181818" points="4903.821,395.865,4895.8346,392.0195,4899.3231,395.7277,4895.6149,399.2162,4903.821,395.865" style="stroke:#181818;stroke-width:0.9;"/><text fill="#000000" font-family="sans-serif" font-size="11.7" lengthAdjust="spacing" textLength="55.9406" x="4015.8" y="352.3755">&#171;includes&#187;</text></g><!--link UC13 to UC33--><g id="link_UC13_UC33"><path d="M3889.269,288.423 C3917.709,297.063 3949.893,305.874 3979.8,311.85 C4322.061,380.241 4736.1698,394.1226 4897.5938,396.9756 " fill="none" id="UC13-to-UC33" style="stroke:#181818;stroke-width:0.9;stroke-dasharray:7.0,7.0;"/><polygon fill="#181818" points="4902.993,397.071,4894.9579,393.3284,4898.4937,396.9915,4894.8306,400.5273,4902.993,397.071" style="stroke:#181818;stroke-width:0.9;"/><text fill="#000000" font-family="sans-serif" font-size="11.7" lengthAdjust="spacing" textLength="55.9406" x="4249.8" y="352.3755">&#171;includes&#187;</text></g><!--link UC14 to UC33--><g id="link_UC14_UC33"><path d="M4222.188,287.181 C4250.151,296.091 4282.2,305.388 4311.9,311.85 C4527.45,358.767 4783.2385,383.1191 4901.5705,392.6591 " fill="none" id="UC14-to-UC33" style="stroke:#181818;stroke-width:0.9;stroke-dasharray:7.0,7.0;"/><polygon fill="#181818" points="4906.953,393.093,4899.1685,388.8537,4902.4676,392.7314,4898.5899,396.0304,4906.953,393.093" style="stroke:#181818;stroke-width:0.9;"/><text fill="#000000" font-family="sans-serif" font-size="11.7" lengthAdjust="spacing" textLength="55.9406" x="4563.9" y="352.3755">&#171;includes&#187;</text></g><!--link UC15 to UC33--><g id="link_UC15_UC33"><path d="M4565.682,287.064 C4592.43,295.2 4622.094,304.065 4649.4,311.85 C4748.238,340.047 4859.7394,369.2343 4921.6954,385.2273 " fill="none" id="UC15-to-UC33" style="stroke:#181818;stroke-width:0.9;stroke-dasharray:7.0,7.0;"/><polygon fill="#181818" points="4926.924,386.577,4919.9809,381.0667,4922.5668,385.4523,4918.1813,388.0382,4926.924,386.577" style="stroke:#181818;stroke-width:0.9;"/><text fill="#000000" font-family="sans-serif" font-size="11.7" lengthAdjust="spacing" textLength="55.9406" x="4807.8" y="352.3755">&#171;includes&#187;</text></g><!--link UC16 to UC33--><g id="link_UC16_UC33"><path d="M4850.64,291.348 C4882.905,319.959 4925.5201,357.75 4950.0901,379.53 " fill="none" id="UC16-to-UC33" style="stroke:#181818;stroke-width:0.9;stroke-dasharray:7.0,7.0;"/><polygon fill="#181818" points="4954.131,383.112,4950.4577,375.045,4950.7636,380.127,4945.6816,380.4329,4954.131,383.112" style="stroke:#181818;stroke-width:0.9;"/><text fill="#000000" font-family="sans-serif" font-size="11.7" lengthAdjust="spacing" textLength="55.9406" x="4921.2" y="352.3755">&#171;includes&#187;</text></g><!--link UC17 to UC33--><g id="link_UC17_UC33"><path d="M5101.677,288.657 C5067.225,317.358 5019.2451,357.3436 4992.3261,379.7806 " fill="none" id="UC17-to-UC33" style="stroke:#181818;stroke-width:0.9;stroke-dasharray:7.0,7.0;"/><polygon fill="#181818" points="4988.178,383.238,4996.705,380.8173,4991.6347,380.3568,4992.0951,375.2865,4988.178,383.238" style="stroke:#181818;stroke-width:0.9;"/><text fill="#000000" font-family="sans-serif" font-size="11.7" lengthAdjust="spacing" textLength="55.9406" x="5039.1" y="352.3755">&#171;includes&#187;</text></g><!--link UC18 to UC33--><g id="link_UC18_UC33"><path d="M5371.236,285.723 C5345.118,294.3 5315.544,303.759 5288.4,311.85 C5191.335,340.767 5081.609,369.5047 5020.067,385.2727 " fill="none" id="UC18-to-UC33" style="stroke:#181818;stroke-width:0.9;stroke-dasharray:7.0,7.0;"/><polygon fill="#181818" points="5014.836,386.613,5023.5761,388.0899,5019.1952,385.4961,5021.789,381.1152,5014.836,386.613" style="stroke:#181818;stroke-width:0.9;"/><text fill="#000000" font-family="sans-serif" font-size="11.7" lengthAdjust="spacing" textLength="55.9406" x="5193" y="352.3755">&#171;includes&#187;</text></g><!--link UC19 to UC33--><g id="link_UC19_UC33"><path d="M5690.502,285.165 C5663.952,294.714 5632.515,304.974 5603.4,311.85 C5398.56,360.243 5154.9041,383.7022 5039.9111,392.8192 " fill="none" id="UC19-to-UC33" style="stroke:#181818;stroke-width:0.9;stroke-dasharray:7.0,7.0;"/><polygon fill="#181818" points="5034.528,393.246,5042.8872,396.1946,5039.0139,392.8903,5042.3181,389.0171,5034.528,393.246" style="stroke:#181818;stroke-width:0.9;"/><text fill="#000000" font-family="sans-serif" font-size="11.7" lengthAdjust="spacing" textLength="55.9406" x="5466.6" y="352.3755">&#171;includes&#187;</text></g><!--link UC20 to UC33--><g id="link_UC20_UC33"><path d="M5994.936,289.899 C5965.92,297.936 5933.853,306.036 5904,311.85 C5583.582,374.301 5197.5696,391.4925 5043.2376,396.0825 " fill="none" id="UC20-to-UC33" style="stroke:#181818;stroke-width:0.9;stroke-dasharray:7.0,7.0;"/><polygon fill="#181818" points="5037.84,396.243,5046.0434,399.6006,5042.338,396.1092,5045.8294,392.4038,5037.84,396.243" style="stroke:#181818;stroke-width:0.9;"/><text fill="#000000" font-family="sans-serif" font-size="11.7" lengthAdjust="spacing" textLength="55.9406" x="5727.6" y="352.3755">&#171;includes&#187;</text></g><!--link UC21 to UC33--><g id="link_UC21_UC33"><path d="M6371.163,290.835 C6341.778,298.737 6309.459,306.513 6279.3,311.85 C5810.184,394.911 5239.0709,399.6382 5044.1489,398.5852 " fill="none" id="UC21-to-UC33" style="stroke:#181818;stroke-width:0.9;stroke-dasharray:7.0,7.0;"/><polygon fill="#181818" points="5038.749,398.556,5046.8294,402.1997,5043.2489,398.5803,5046.8683,394.9998,5038.749,398.556" style="stroke:#181818;stroke-width:0.9;"/><text fill="#000000" font-family="sans-serif" font-size="11.7" lengthAdjust="spacing" textLength="55.9406" x="6103.8" y="352.3755">&#171;includes&#187;</text></g><!--link UC22 to UC33--><g id="link_UC22_UC33"><path d="M6757.281,289.872 C6728.139,298.125 6695.658,306.351 6665.4,311.85 C6344.757,370.125 5317.9102,391.7739 5043.5722,396.6069 " fill="none" id="UC22-to-UC33" style="stroke:#181818;stroke-width:0.9;stroke-dasharray:7.0,7.0;"/><polygon fill="#181818" points="5038.173,396.702,5046.3352,400.1588,5042.6723,396.6227,5046.2083,392.9599,5038.173,396.702" style="stroke:#181818;stroke-width:0.9;"/><text fill="#000000" font-family="sans-serif" font-size="11.7" lengthAdjust="spacing" textLength="55.9406" x="6424.2" y="352.3755">&#171;includes&#187;</text></g><!--link UC23 to UC33--><g id="link_UC23_UC33"><path d="M7128.126,289.872 C7098.714,298.188 7065.882,306.441 7035.3,311.85 C6795.045,354.375 6731.73,342.783 6488.1,355.95 C5928.57,386.19 5257.1247,395.0098 5043.8337,397.1518 " fill="none" id="UC23-to-UC33" style="stroke:#181818;stroke-width:0.9;stroke-dasharray:7.0,7.0;"/><polygon fill="#181818" points="5038.434,397.206,5046.5697,400.7245,5042.9338,397.1608,5046.4974,393.5248,5038.434,397.206" style="stroke:#181818;stroke-width:0.9;"/><text fill="#000000" font-family="sans-serif" font-size="11.7" lengthAdjust="spacing" textLength="55.9406" x="6838.2" y="352.3755">&#171;includes&#187;</text></g><!--link UC24 to UC33--><g id="link_UC24_UC33"><path d="M7498.314,289.08 C7469.568,297.63 7437.159,306.225 7407,311.85 C7185.564,353.151 7127.019,343.701 6902.1,355.95 C6173.28,395.631 5293.242,398.0913 5044.158,397.9383 " fill="none" id="UC24-to-UC33" style="stroke:#181818;stroke-width:0.9;stroke-dasharray:7.0,7.0;"/><polygon fill="#181818" points="5038.758,397.935,5046.8558,401.54,5043.258,397.9378,5046.8602,394.34,5038.758,397.935" style="stroke:#181818;stroke-width:0.9;"/><text fill="#000000" font-family="sans-serif" font-size="11.7" lengthAdjust="spacing" textLength="55.9406" x="7225.2" y="352.3755">&#171;includes&#187;</text></g><!--link UC25 to UC33--><g id="link_UC25_UC33"><path d="M7854.462,289.278 C7825.41,297.711 7792.821,306.189 7762.5,311.85 C7554.78,350.64 7500.087,344.232 7289.1,355.95 C6834.15,381.213 5376.3388,394.4796 5043.7798,397.2156 " fill="none" id="UC25-to-UC33" style="stroke:#181818;stroke-width:0.9;stroke-dasharray:7.0,7.0;"/><polygon fill="#181818" points="5038.38,397.26,5046.5093,400.7932,5042.8798,397.223,5046.4501,393.5935,5038.38,397.26" style="stroke:#181818;stroke-width:0.9;"/><text fill="#000000" font-family="sans-serif" font-size="11.7" lengthAdjust="spacing" textLength="55.9406" x="7583.4" y="352.3755">&#171;includes&#187;</text></g><!--link UC26 to UC33--><g id="link_UC26_UC33"><path d="M8197.812,277.65 C8178.318,289.386 8150.697,304.164 8124.3,311.85 C7919.883,371.358 7859.898,344.475 7647.3,355.95 C7117.245,384.552 5407.2899,395.4032 5044.0679,397.4102 " fill="none" id="UC26-to-UC33" style="stroke:#181818;stroke-width:0.9;stroke-dasharray:7.0,7.0;"/><polygon fill="#181818" points="5038.668,397.44,5046.7878,400.9952,5043.1679,397.4151,5046.748,393.7953,5038.668,397.44" style="stroke:#181818;stroke-width:0.9;"/><text fill="#000000" font-family="sans-serif" font-size="11.7" lengthAdjust="spacing" textLength="55.9406" x="8007.3" y="352.3755">&#171;includes&#187;</text></g><!--link UC27 to UC33--><g id="link_UC27_UC33"><path d="M8398.179,278.316 C8377.848,289.503 8350.119,303.381 8324.1,311.85 C8215.605,347.166 8184.798,345.348 8071.2,355.95 C7760.232,384.975 5470.668,395.7437 5044.203,397.5077 " fill="none" id="UC27-to-UC33" style="stroke:#181818;stroke-width:0.9;stroke-dasharray:7.0,7.0;"/><polygon fill="#181818" points="5038.803,397.53,5046.9178,401.0965,5043.303,397.5114,5046.888,393.8965,5038.803,397.53" style="stroke:#181818;stroke-width:0.9;"/><text fill="#000000" font-family="sans-serif" font-size="11.7" lengthAdjust="spacing" textLength="55.9406" x="8221.5" y="352.3755">&#171;includes&#187;</text></g><!--link UC28 to UC33--><g id="link_UC28_UC33"><path d="M8604.513,277.245 C8585.316,288.63 8558.361,303.156 8532.9,311.85 C8427.159,347.958 8396.631,345.411 8285.4,355.95 C7951.833,387.558 5487.633,396.2719 5044.194,397.5949 " fill="none" id="UC28-to-UC33" style="stroke:#181818;stroke-width:0.9;stroke-dasharray:7.0,7.0;"/><polygon fill="#181818" points="5038.794,397.611,5046.9047,401.1868,5043.294,397.5976,5046.8832,393.9868,5038.794,397.611" style="stroke:#181818;stroke-width:0.9;"/><text fill="#000000" font-family="sans-serif" font-size="11.7" lengthAdjust="spacing" textLength="55.9406" x="8436.6" y="352.3755">&#171;includes&#187;</text></g><!--link UC29 to UC33--><g id="link_UC29_UC33"><path d="M8801.1,277.605 C8781.579,288.846 8754.534,303.066 8729.1,311.85 C8631.297,345.627 8603.442,345.492 8500.5,355.95 C8144.388,392.121 5503.914,397.1179 5044.122,397.7209 " fill="none" id="UC29-to-UC33" style="stroke:#181818;stroke-width:0.9;stroke-dasharray:7.0,7.0;"/><polygon fill="#181818" points="5038.722,397.728,5046.8267,401.3174,5043.222,397.7221,5046.8173,394.1174,5038.722,397.728" style="stroke:#181818;stroke-width:0.9;"/><text fill="#000000" font-family="sans-serif" font-size="11.7" lengthAdjust="spacing" textLength="55.9406" x="8636.4" y="352.3755">&#171;includes&#187;</text></g><!--link UC30 to UC33--><g id="link_UC30_UC33"><path d="M9000.477,277.137 C8981.262,288.459 8954.298,302.976 8928.9,311.85 C8831.223,345.987 8803.251,345.528 8700.3,355.95 C8323.011,394.146 5518.809,397.4817 5044.122,397.7697 " fill="none" id="UC30-to-UC33" style="stroke:#181818;stroke-width:0.9;stroke-dasharray:7.0,7.0;"/><polygon fill="#181818" points="5038.722,397.773,5046.822,401.373,5043.222,397.773,5046.822,394.173,5038.722,397.773" style="stroke:#181818;stroke-width:0.9;"/><text fill="#000000" font-family="sans-serif" font-size="11.7" lengthAdjust="spacing" textLength="55.9406" x="8836.2" y="352.3755">&#171;includes&#187;</text></g><!--link UC31 to UC33--><g id="link_UC31_UC33"><path d="M9194.112,275.976 C9176.103,287.487 9149.958,302.733 9125.1,311.85 C9029.43,346.941 9001.476,345.564 8900.1,355.95 C8501.697,396.765 5533.659,397.918 5044.203,397.828 " fill="none" id="UC31-to-UC33" style="stroke:#181818;stroke-width:0.9;stroke-dasharray:7.0,7.0;"/><polygon fill="#181818" points="5038.803,397.827,5046.9023,401.4285,5043.303,397.8278,5046.9037,394.2285,5038.803,397.827" style="stroke:#181818;stroke-width:0.9;"/><text fill="#000000" font-family="sans-serif" font-size="11.7" lengthAdjust="spacing" textLength="55.9406" x="9034.2" y="352.3755">&#171;includes&#187;</text></g><!--link UC32 to UC33--><g id="link_UC32_UC33"><path d="M9415.233,300.042 C9323.325,321.048 9204.912,344.79 9098.1,355.95 C8678.709,399.78 5546.79,398.3995 5043.987,397.8865 " fill="none" id="UC32-to-UC33" style="stroke:#181818;stroke-width:0.9;stroke-dasharray:7.0,7.0;"/><polygon fill="#181818" points="5038.587,397.881,5046.6833,401.4893,5043.087,397.8856,5046.6907,394.2893,5038.587,397.881" style="stroke:#181818;stroke-width:0.9;"/><text fill="#000000" font-family="sans-serif" font-size="11.7" lengthAdjust="spacing" textLength="55.9406" x="9216.9" y="352.3755">&#171;includes&#187;</text></g><!--link UC33 to UC34--><g id="link_UC33_UC34"><path d="M4970.7,414.801 C4970.7,430.191 4970.7,448.452 4970.7,463.887 " fill="none" id="UC33-to-UC34" style="stroke:#181818;stroke-width:0.9;stroke-dasharray:7.0,7.0;"/><polygon fill="#181818" points="4970.7,469.287,4974.3,461.187,4970.7,464.787,4967.1,461.187,4970.7,469.287" style="stroke:#181818;stroke-width:0.9;"/></g><!--link UC34 to UC35--><g id="link_UC34_UC35"><path d="M4970.7,501.759 C4970.7,521.037 4970.7,548.505 4970.7,567.378 " fill="none" id="UC34-to-UC35" style="stroke:#181818;stroke-width:0.9;stroke-dasharray:7.0,7.0;"/><polygon fill="#181818" points="4970.7,572.778,4974.3,564.678,4970.7,568.278,4967.1,564.678,4970.7,572.778" style="stroke:#181818;stroke-width:0.9;"/><text fill="#000000" font-family="sans-serif" font-size="11.7" lengthAdjust="spacing" textLength="55.9406" x="4971.6" y="542.2755">&#171;includes&#187;</text></g><!--link UC35 to Database--><g id="link_UC35_Database"><path d="M4970.7,603.54 C4970.7,619.02 4970.7,643.527 4970.7,659.88 " fill="none" id="UC35-Database" style="stroke:#181818;stroke-width:0.9;"/></g><!--SRC=[dPTDRzD048Rl-HMZd41ggynid0zKHQeA0Yu8WSfzOo_D2hDUsMiAGlntrd4BKSVssCd97hqpVkV9E3lHQIXAkAjC2Rg2UNCndyrAamRjxdC3htNGUrsPqzZyO-7hN0TREBZnFhVfyNeElsSGFtLbqfW1TxSBF1RzP7nH1gWEnODrzw3p7DAYTg6qfWBh81mCF1HbdiKdFoj0emheUEk2TSO5NaADB56Q-wO9bh_ioW-5Xv_WMmuc6zrFChdOO6-hCyhrzRdkvMI3tDX6pXxiP3iclySwBiOzlC7mYsVZcEpCLf5XofqZZVeEHZ14DQtI44zSJgtLnpQPRgg7ysfgfNxc_REglGrwtCpYPdoLGTRRANLwEDDY59q9xH6ULt6eLQ9pQ_QrtJtpiId__unfvs1V7syaXykp2lRPIywqr_qAKFiAd1oVnTUXRt3T8HziVjEPqDVSjgTyjtcrw9JtlgGAkylRq56xdQiFzVTzN4IYpfl2nqtZTC2XyaP_Q_ZV7cBxbRc0Dt4TiTNX0jvPbzaB-EorY_UWNGOtfTxRz8e_gfsuzyxN0Rxet6Rjyi9qxI2zDSwKSQgXdG4kQoUaMPEYf3bcV-WygewourfrUNcvWnVDClJoMR3PRtX8yT2IXn8UMl7GceSsFBHb8Lpm4F8GTu_SFNBtoDqZTu_SFNBtoDqJTq_SFN7tnDqJTq_SFN7tnDqJTq_SlUBk5NUlw774cYNxwchNJlOhkBwsBithp5IxtPE0986I14j9a4Y2bIHOIuAD9DWAWhWc2WA994eaKIA94acKIA944YMIA954YIH994aYIH99aaYIH98aaYIH98aaIIH98gaaaaeYgIIIwX_9vTEnr1nkZx7aUTAJ8ec_D2V__cT__W80]--></g></svg>